<svg width="16" height="14" viewBox="0 0 16 14" fill="none" xmlns="http://www.w3.org/2000/svg"><path d="M14.786 5.835h-.727a3.118 3.118 0 0 0-.664-3.44.446.446 0 0 0-.631 0l-.394.394a2.234 2.234 0 0 0-2.076-1.417c-.76 0-1.454.383-1.862 1.002a3.09 3.09 0 0 0-.338-.072A1.78 1.78 0 0 0 5.834.55a1.329 1.329 0 0 0-.787-.255c-.215 0-.422.05-.608.146a2.235 2.235 0 0 0-2.863.246 2.235 2.235 0 0 0-.247 2.863c-.224.443-.188.985.11 1.394a1.79 1.79 0 0 0-.019.891H.446c-.246 0-.446.2-.446.446C0 7.677.976 8.725 1.92 9.74c.864.928 1.68 1.805 1.68 2.85 0 .246.2.446.446.446h7.14c.247 0 .447-.2.447-.447 0-1.044.816-1.92 1.68-2.85.944-1.013 1.92-2.061 1.92-3.457 0-.246-.2-.446-.447-.446zm-1.738-2.461c.491.74.5 1.71 0 2.461h-2.461l2.461-2.461zM8.474 3.33a.446.446 0 0 0 .584-.24 1.339 1.339 0 0 1 2.572.439L9.602 5.558 8.484 4.44a1.745 1.745 0 0 1-.525-1.256c.176.028.348.076.515.146zM2.207 1.318a1.34 1.34 0 0 1 1.893 0 .446.446 0 0 0 .631 0 .447.447 0 0 1 .603-.026c.139.221.39.272.584.177A.89.89 0 0 1 7.165 2.52c-.253.86-.018 1.845.688 2.551l.764.764H2.364a.895.895 0 0 1-.006-.806.449.449 0 0 0-.177-.584.443.443 0 0 1 .026-.602.446.446 0 0 0 0-.631 1.34 1.34 0 0 1 0-1.894zm8.567 10.824H4.459c-.168-1.1-.934-1.983-1.718-2.83.275-.11.5-.295.696-.454.225-.186.42-.345.61-.345.188 0 .383.16.609.345.297.244.667.547 1.175.547s.878-.303 1.176-.547c.225-.186.42-.345.61-.345.188 0 .383.16.609.345.297.244.667.547 1.175.547s.878-.303 1.176-.547c.225-.186.42-.345.61-.345.188 0 .383.16.609.345.194.16.42.345.696.453-.785.848-1.55 1.731-1.718 2.831zm2.512-3.7a.953.953 0 0 1-.315.07c-.189 0-.383-.16-.61-.344-.296-.244-.667-.548-1.175-.548s-.878.304-1.175.548c-.226.185-.42.345-.61.345-.189 0-.384-.16-.61-.345-.297-.244-.667-.548-1.175-.548s-.878.304-1.175.548c-.226.185-.42.345-.61.345-.189 0-.384-.16-.61-.345-.297-.244-.667-.548-1.175-.548s-.878.304-1.175.548c-.226.185-.421.345-.61.345a.953.953 0 0 1-.315-.072c-.479-.554-.87-1.11-1.004-1.714H14.29c-.134.605-.525 1.16-1.004 1.714z" fill="#1F1F1F"/><path d="M3.6 4.437h1.094l.668.668a.446.446 0 1 0 .631-.631l-.668-.668V2.74a.446.446 0 0 0-.892 0v.803H3.6a.446.446 0 0 0 0 .893z" fill="#1F1F1F"/></svg>