<svg width="15" height="15" viewBox="0 0 15 15" fill="none" xmlns="http://www.w3.org/2000/svg"><path d="M13.036 1.953L14.495.786l-.551-.69-1.49 1.193V0h-.883v1.289L10.08.097l-.551.69 1.459 1.166A2.893 2.893 0 0 0 9.127 4.88l.149 2.172c-1.008-.945-2.327-1.124-3.446-.559a2.652 2.652 0 0 0-2.645-2.527v.882c.931 0 1.696.726 1.76 1.641-1.245-.625-2.791-.346-3.852 1.018-1.331 1.711-1.332 4.447 0 6.16 1.191 1.532 2.988 1.692 4.299.746 1.434 1.035 3.303.689 4.427-.921a2.347 2.347 0 0 0 4.534-.66l.545-7.952a2.893 2.893 0 0 0-1.862-2.926zM7.157 14.117c-.525 0-1.034-.208-1.47-.6l-.296-.264-.294.264c-.438.392-.946.6-1.471.6-1.46 0-2.648-1.585-2.648-3.532s1.188-3.53 2.648-3.53c.525 0 1.033.207 1.47.599l.295.264.295-.264c.438-.392.946-.6 1.471-.6.895 0 1.744.624 2.23 1.634l.222 3.23c-.407 1.318-1.384 2.199-2.452 2.199zm4.855 0c-.76 0-1.401-.594-1.46-1.351l-.18-2.622h1.199v-.883h-1.26l-.18-2.648h1.44V5.73H10.07l-.063-.916a1.99 1.99 0 0 1 .53-1.521 1.99 1.99 0 0 1 1.475-.645c.567 0 1.09.23 1.476.645.385.416.573.956.53 1.52l-.184 2.683h-1.38v.883h1.32l-.182 2.648h-1.138v.883h1.078l-.059.856c-.06.757-.7 1.35-1.46 1.35z" fill="#1F1F1F"/></svg>