<svg width="14" height="14" viewBox="0 0 14 14" fill="none" xmlns="http://www.w3.org/2000/svg"><path d="M10.697 1.298H6.504a.41.41 0 0 0-.41.41v3.418c0 .226.183.41.41.41h4.193a.41.41 0 0 0 .41-.41V1.708a.41.41 0 0 0-.41-.41zm-.41 3.417H6.914V2.118h3.373v2.597zm-5.1-3.417H3.213a.41.41 0 0 0-.41.41v3.418c0 .226.183.41.41.41h1.974a.41.41 0 0 0 .41-.41V1.708a.41.41 0 0 0-.41-.41zm-.41 3.417H3.623V2.118h1.154v2.597z" fill="#1F1F1F"/><path d="M13.202 8.671l-.607-1.263V.747A.759.759 0 0 0 11.826 0H2.311a.759.759 0 0 0-.769.747V7.39l-.73 1.252a.41.41 0 0 0-.055.207v4.43c0 .397.341.721.761.721h10.963c.42 0 .762-.324.762-.722v-4.43a.41.41 0 0 0-.04-.177zM2.362.821h9.413v6.27H2.363V.82zm-.174 7.09h9.739l.308.64H1.815l.373-.64zm10.235 5.269H1.577V9.37h10.846v3.809z" fill="#1F1F1F"/><path d="M10.697 5.838H6.504a.41.41 0 0 0 0 .82h4.193a.41.41 0 1 0 0-.82z" fill="#1F1F1F"/></svg>