<svg width="14" height="14" viewBox="0 0 14 14" fill="none" xmlns="http://www.w3.org/2000/svg"><g clip-path="url(#a)" fill="#000"><path d="M1.739 12.85c.043.63.593 1.15 1.24 1.15.671 0 1.218-.552 1.218-1.23v-.65l1.42-1.42a2.876 2.876 0 0 0 2.953-.629c.543-.524 1.131-1.056 1.832-1.301a4.45 4.45 0 0 0 1.688-1.062 4.496 4.496 0 0 0 1.298-3.656A4.541 4.541 0 0 0 11.335.715c-1.512-.99-3.54-.948-5.02.103a4.52 4.52 0 0 0-1.92 3.927c.032.626-.12 1.283-.494 2.13-.29.66-.262 1.383-.004 2.068l-1.43 1.448h-.649c-.678 0-1.23.547-1.23 1.219 0 .658.51 1.198 1.151 1.24zm2.913-5.644c.265-.603.612-1.517.562-2.502A3.704 3.704 0 0 1 6.79 1.487a3.662 3.662 0 0 1 4.097-.086 3.725 3.725 0 0 1 1.686 2.736 3.68 3.68 0 0 1-2.441 3.859c-.857.3-1.523.898-2.13 1.485a2.058 2.058 0 0 1-2.871-.033c-.167-.168-.924-1.23-.478-2.242zM1.818 11.21h.82a.41.41 0 0 0 .292-.122l1.363-1.38a2.267 2.267 0 0 0 .568.588l-1.364 1.362a.41.41 0 0 0-.12.29v.82a.4.4 0 0 1-.399.41.433.433 0 0 1-.421-.41v-.328a.41.41 0 0 0-.41-.41h-.329a.422.422 0 0 1-.41-.421.4.4 0 0 1 .41-.399z"/><path d="M8.9 2.608a.41.41 0 1 0 0-.82.41.41 0 0 0 0 .82zm-1.74.58a.41.41 0 1 0 0-.82.41.41 0 0 0 0 .82zm1.16 1.16a.41.41 0 1 0 0-.82.41.41 0 0 0 0 .82z"/></g><defs><clipPath id="a"><path fill="#fff" d="M0 0h14v14H0z"/></clipPath></defs></svg>