<svg width="90" height="90" viewBox="0 0 90 90" fill="none" xmlns="http://www.w3.org/2000/svg"><path d="M80.314 61.211H9.686C4.336 61.211 0 65.551 0 70.9s4.337 9.686 9.686 9.686h70.628A9.685 9.685 0 0 0 90 70.9c0-5.35-4.335-9.689-9.686-9.689z" fill="#E6E6E6"/><path d="M9.744 66.268a4.686 4.686 0 0 0-4.687 4.688 4.686 4.686 0 0 0 4.687 4.687 4.687 4.687 0 1 0 0-9.375zm70.628 0a4.686 4.686 0 0 0-4.688 4.688 4.686 4.686 0 0 0 4.688 4.687 4.687 4.687 0 1 0 0-9.375zm-23.542 0a4.687 4.687 0 1 0 4.688 4.688 4.69 4.69 0 0 0-4.689-4.688zm-23.544 0a4.687 4.687 0 1 0 0 9.375 4.687 4.687 0 0 0 4.688-4.687 4.687 4.687 0 0 0-4.688-4.688z" fill="#C2C7CC"/><path d="M70.038 9.424H19.962a3.75 3.75 0 0 0-3.75 3.75V57.46c0 2.07 1.68 3.75 3.75 3.75h50.076a3.75 3.75 0 0 0 3.75-3.75V13.174a3.746 3.746 0 0 0-3.749-3.75z" fill="#FFA719"/><path d="M52.155 9.415v13.817l-1.693-1.718-1.823 1.819-1.82-1.82-1.82 1.82-1.8-1.82-1.823 1.82-1.82-1.82-1.715 1.718V9.415h14.314z" fill="#E6E6E6"/><path d="M41.916 45.165c-.155-1.129-.521-2.186-1.088-3.092-.68-1.086-1.622-1.883-2.701-2.302-.596.517-1.607 1.053-3.235 1.053-.462 0-1.01-.08-1.01-.08v-1.148s1.352.277 2.595-.16a2.754 2.754 0 0 0 1.058-.656c1.163-1.18.803-3.727.803-3.727s-2.511-.365-3.674.814c-.483.49-.714 1.14-.818 1.74a2.503 2.503 0 0 0-.742-1.399 2.432 2.432 0 0 0-1.682-.677h-.99v1.166h.99a1.316 1.316 0 0 1 1.31 1.329v1.884c-.533-.021-1.792-.318-1.897-.342a5.313 5.313 0 0 0-.607-.103 4.997 4.997 0 0 0-1.646.09c-1.374.306-2.585 1.2-3.41 2.518-.595.951-.97 2.069-1.11 3.261a9.707 9.707 0 0 0 .179 3.238c.447 2.002 1.47 3.76 2.882 4.948 1.241 1.045 2.657 1.553 4.06 1.471.27-.016 1.644-.375 1.817-.455.132.061 1.526.436 1.786.453.108.007.216.011.323.011 1.307 0 2.613-.507 3.768-1.48 1.412-1.188 2.435-2.946 2.882-4.948a9.663 9.663 0 0 0 .157-3.407z" fill="#F74311"/></svg>