<svg width="90" height="90" viewBox="0 0 90 90" fill="none" xmlns="http://www.w3.org/2000/svg"><path fill-rule="evenodd" clip-rule="evenodd" d="M76.877 62.617c-1.272-5.405-5.505-7.94-10.816-8.875a30.057 30.057 0 0 0-3.799-.409c-.965-.03-1.767-.23-2.446-.552-3.815 7.23-21.253 6.72-24.163 0v-.05c-.705.352-1.543.571-2.553.602a30.302 30.302 0 0 0-3.693.388c-5.162.885-9.319 3.265-10.769 8.298 2.241 2.152 20.44 18.56 20.584 19.458h38.21V72.28c0-.981.445-1.866 1.145-2.458l-1.7-7.205z" fill="#F78411"/><path d="M12.69 53.087a1.367 1.367 0 0 1-.955-2.348c1.29-1.258 1.013-1.8.345-3.108-.764-1.496-1.92-3.756 1.045-6.546a1.37 1.37 0 0 1 1.876 1.993c-1.468 1.381-1.18 1.946-.482 3.308.741 1.452 1.862 3.646-.874 6.312-.266.26-.61.389-.956.389zM20.268 45.75a1.367 1.367 0 0 1-.956-2.348c1.29-1.26 1.013-1.8.344-3.108-.766-1.495-1.923-3.756 1.042-6.547a1.369 1.369 0 0 1 1.876 1.994c-1.467 1.38-1.178 1.944-.48 3.306.742 1.453 1.866 3.647-.871 6.314a1.367 1.367 0 0 1-.955.388zM83.152 70.872a1.368 1.368 0 0 1-1.368-1.368V47.16a1.368 1.368 0 0 1 2.737 0v22.344c0 .756-.613 1.368-1.369 1.368z" fill="#666"/><path fill-rule="evenodd" clip-rule="evenodd" d="M33.1 53.333a30.3 30.3 0 0 0-3.692.388v8.298l2.772 2.489 3.473-2.489v-9.288c-.705.352-1.542.571-2.553.602zM29.142 79.214h7.435c1.333 0 2.446.986 2.645 2.263H71.02l-2.436-14.098c-.23-1.369-1.134-2.529-2.523-2.529V53.742a30.006 30.006 0 0 0-3.8-.409c-.964-.03-1.766-.23-2.445-.552v12.07H40.724c.04.306-9.355 13.448-11.582 14.363z" fill="#E6E6E6"/><path fill-rule="evenodd" clip-rule="evenodd" d="M56.829 49.562l-8.696-2.744-9.575 2.693-.025.046c-.638 1.354-1.543 2.498-2.88 3.173v.051c2.91 6.719 20.349 7.23 24.163 0-1.399-.664-2.287-1.86-2.987-3.219z" fill="#FCC368"/><path fill-rule="evenodd" clip-rule="evenodd" d="M58.136 23.39a70.568 70.568 0 0 0-20.895 0 72.827 72.827 0 0 0-6.072 1.175v13.321c0 4.717 3.436 8.881 7.39 11.625 3.227 2.248 6.8 3.541 9.104 3.418 2.91-.163 6.25-1.379 9.166-3.367 4.146-2.83 7.435-7.225 7.435-12.386V24.561a74.883 74.883 0 0 0-6.128-1.171z" fill="#FFDDA6"/><path fill-rule="evenodd" clip-rule="evenodd" d="M48.148 2.46c-3.191.011-6.552 1.646-8.221 4.902h-4.484c-6.48 0-10.34 7.122-4.274 10.898v9.908c2.027-.48 4.05-.869 6.072-1.175a70.527 70.527 0 0 1 20.895 0 75.3 75.3 0 0 1 6.128 1.175V18.26c6.066-3.776 2.374-10.898-4.106-10.898h-4.82c-.945-3.256-3.943-4.89-7.129-4.901h-.06z" fill="#E6E6E6"/><path fill-rule="evenodd" clip-rule="evenodd" d="M64.264 18.26c6.067-3.776 2.374-10.9-4.105-10.9h-3.785c5.812 0 9.401 5.197 5.694 9.106-1.19 1.252-1.567.603-1.567 2.356l-.015 8.559c1.26.23 2.522.49 3.778.787V18.26z" fill="#C2C7CC"/><path fill-rule="evenodd" clip-rule="evenodd" d="M64.264 34.795c-.214-.041-2.135-.408-3.779-1.716v3.31c0 5.16-3.293 9.56-7.44 12.386-2.916 1.993-6.255 3.204-9.165 3.368-.103.004-.205.01-.312.01 1.542.557 2.972.838 4.095.776 2.91-.163 6.25-1.379 9.166-3.367 4.147-2.83 7.435-7.225 7.435-12.386v-2.38z" fill="#FCC368"/><path fill-rule="evenodd" clip-rule="evenodd" d="M59.816 52.781c-1.399-.665-2.288-1.86-2.987-3.219a20.87 20.87 0 0 1-5.418 2.652c.843 1.63 1.537 2.376 3.973 3.53.291.139.608.256.944.343 1.532-.822 2.758-1.927 3.488-3.306z" fill="#EDA93B"/><path fill-rule="evenodd" clip-rule="evenodd" d="M76.877 62.617c-1.272-5.405-5.505-7.94-10.816-8.875a30.016 30.016 0 0 0-3.799-.409c-.965-.03-1.767-.23-2.446-.552-.73 1.38-1.956 2.484-3.488 3.306.455.123.95.195 1.502.21.673.036 1.333.082 1.986.153.618.067 1.22.148 1.813.255 1.588.281 3.084.706 4.432 1.304 3.15 1.41 5.494 3.786 6.388 7.577 1.287 5.462 1.777 10.286 1.777 15.89h3.207V72.28c0-.981.444-1.866 1.144-2.458l-1.7-7.205z" fill="#F74311"/><path fill-rule="evenodd" clip-rule="evenodd" d="M66.062 53.742a30.016 30.016 0 0 0-3.8-.409c-.965-.03-1.766-.23-2.446-.552v3.669c.618.067 1.22.148 1.813.255 1.588.281 3.084.706 4.433 1.304v-4.267z" fill="#C2C7CC"/><path fill-rule="evenodd" clip-rule="evenodd" d="M88.871 74.783c0-3.148-2.573-5.722-5.719-5.722H80.65c-.786 0-1.511.285-2.073.76a3.218 3.218 0 0 0-1.144 2.459v10.347a3.232 3.232 0 0 0 3.217 3.223h2.502c3.146 0 5.72-2.575 5.72-5.722v-5.345z" fill="#FFDDA6"/><path fill-rule="evenodd" clip-rule="evenodd" d="M86.058 27.355h-5.811a3.956 3.956 0 0 0-3.942 3.945v11.916a3.952 3.952 0 0 0 3.942 3.944h5.81c1.221 0 2.313-.561 3.04-1.44A3.933 3.933 0 0 0 90 43.216V31.3a3.92 3.92 0 0 0-.904-2.498 3.938 3.938 0 0 0-3.038-1.447z" fill="#E6E6E6"/><path fill-rule="evenodd" clip-rule="evenodd" d="M68.584 67.379c-.23-1.37-1.133-2.529-2.522-2.529h-3.636l2.976 16.627h5.618l-2.436-14.098z" fill="#C2C7CC"/><path fill-rule="evenodd" clip-rule="evenodd" d="M88.871 74.783c0-3.148-2.573-5.722-5.719-5.722H80.65c-.332 0-.653.05-.96.147 2.528.588 4.427 2.872 4.427 5.575v5.345c0 2.703-1.899 4.982-4.427 5.575.307.092.628.148.96.148h2.502c3.145 0 5.72-2.576 5.72-5.723v-5.345zM50.808 64.85a3.272 3.272 0 0 0-3.232-2.831h-5.484c-1.925 0-2.252 1.814-2.666 3.68-.209.929 3.994 1.977 3.662 2.845h4.488a3.269 3.269 0 0 0 3.263-3.26c0-.148-.01-.291-.03-.434zM8.742 62.019H3.258A3.272 3.272 0 0 0 0 65.284a3.268 3.268 0 0 0 3.258 3.26h4.478l4.253-4.037-3.247-2.488z" fill="#FCC368"/><path fill-rule="evenodd" clip-rule="evenodd" d="M35.653 62.019H8.743c-1.926 0-2.222 1.952-1.808 3.822.21.94.48 1.84.802 2.703 1.899 5.054 5.698 8.784 10.498 10.67l6.215 3.882 8.298-3.883c4.743-1.957 8.486-5.84 10.34-10.669.331-.868.608-1.773.812-2.703.413-1.87.122-3.822-1.808-3.822h-6.44z" fill="#F78411"/><path fill-rule="evenodd" clip-rule="evenodd" d="M32.748 79.213H11.673a2.682 2.682 0 0 0-2.676 2.678v2.795c0 1.471 1.2 2.677 2.676 2.677h28.509a2.686 2.686 0 0 0 2.676-2.677V81.89c0-.138-.01-.281-.036-.414a2.684 2.684 0 0 0-2.64-2.264h-7.434z" fill="gray"/><path fill-rule="evenodd" clip-rule="evenodd" d="M42.092 62.019h-5.581c1.925 0 2.22 1.952 1.807 3.822-.209.93-.48 1.835-.817 2.703a18.879 18.879 0 0 1-1.261 2.658 19.095 19.095 0 0 1-3.186 4.117c-.082.077-.163.159-.245.236a18.531 18.531 0 0 1-5.648 3.658h5.587c1-.414 1.955-.91 2.859-1.487A18.962 18.962 0 0 0 43.9 65.841c.076-.332.127-.664.148-.99.112-1.508-.367-2.832-1.956-2.832z" fill="#F74311"/><path fill-rule="evenodd" clip-rule="evenodd" d="M42.822 81.477a2.684 2.684 0 0 0-2.64-2.264h-5.587a2.69 2.69 0 0 1 2.646 2.264c.02.133.03.276.03.414v2.795a2.686 2.686 0 0 1-2.676 2.677h5.587a2.686 2.686 0 0 0 2.676-2.677V81.89c0-.138-.01-.281-.036-.414z" fill="#666"/><path fill-rule="evenodd" clip-rule="evenodd" d="M89.096 28.802a3.938 3.938 0 0 0-3.038-1.447H80.71a3.96 3.96 0 0 1 3.943 3.945v11.916a3.956 3.956 0 0 1-3.943 3.944h5.347c1.22 0 2.313-.561 3.038-1.44A3.933 3.933 0 0 0 90 43.216V31.3a3.92 3.92 0 0 0-.904-2.498z" fill="#C2C7CC"/><path fill-rule="evenodd" clip-rule="evenodd" d="M64.264 28.168a75.242 75.242 0 0 0-6.128-1.175c-.72 6.488 5.72 7.73 6.128 7.802v-6.628zM37.24 26.993a75.18 75.18 0 0 0-6.07 1.175v6.617c.883-.174 6.755-1.595 6.07-7.792z" fill="gray"/><path fill-rule="evenodd" clip-rule="evenodd" d="M64.264 28.168a75.576 75.576 0 0 0-3.779-.787v5.697c1.644 1.308 3.565 1.676 3.779 1.717v-6.627z" fill="#666"/><path d="M39.425 35.645a1.37 1.37 0 0 1-.978-2.328c.977-1 2.672-1.114 3.356-1.117h.027c.712 0 2.403.113 3.393 1.11a1.369 1.369 0 0 1-1.942 1.929c-.44-.397-2.433-.4-2.88-.005a1.36 1.36 0 0 1-.976.411zM50.51 35.645a1.37 1.37 0 0 1-.977-2.328c.978-1 2.672-1.114 3.356-1.117h.027c.71 0 2.402.113 3.393 1.11a1.369 1.369 0 1 1-1.943 1.929c-.44-.397-2.432-.4-2.879-.005a1.361 1.361 0 0 1-.976.411z" fill="#666"/><path d="M47.515 18.862a1.37 1.37 0 0 1-1.369-1.368v-6.285a1.369 1.369 0 0 1 2.738 0v6.285c0 .755-.613 1.368-1.369 1.368zM38.221 21.698a1.37 1.37 0 0 1-1.369-1.369v-6.28a1.369 1.369 0 0 1 2.738 0v6.28c0 .756-.613 1.369-1.369 1.369zM56.808 21.698a1.369 1.369 0 0 1-1.368-1.369v-6.28a1.368 1.368 0 0 1 2.738 0v6.28a1.37 1.37 0 0 1-1.37 1.369z" fill="#C2C7CC"/></svg>