<svg width="14" height="14" viewBox="0 0 14 14" fill="none" xmlns="http://www.w3.org/2000/svg"><g clip-path="url(#a)" fill="#000"><path d="M8.318 1.318c-1.612 0-3.07.675-4.105 1.757H.41a.41.41 0 0 0-.328.656l.826 1.101H.41a.41.41 0 0 0-.328.657l.826 1.1H.41a.41.41 0 0 0-.328.657l.826 1.101H.41a.41.41 0 0 0-.328.656l.826 1.101H.41a.41.41 0 0 0-.328.657L1.4 12.518a.41.41 0 0 0 .328.164h6.59A5.688 5.688 0 0 0 14 7a5.689 5.689 0 0 0-5.682-5.682zM3.561 3.895a5.66 5.66 0 0 0-.495.937H1.933l-.703-.937h2.331zM1.728 5.653h1.07a5.656 5.656 0 0 0-.147.937h-.718l-.703-.937h.498zm0 1.757h.923c.023.32.073.633.147.937h-.865L1.23 7.41h.498zm0 1.757h1.338c.136.33.302.643.495.937H1.933l-.703-.937h.498zm.205 2.695l-.703-.937h2.983a5.72 5.72 0 0 0 1.167.937H1.933zm6.385 0A4.867 4.867 0 0 1 3.456 7a4.867 4.867 0 0 1 4.862-4.862A4.867 4.867 0 0 1 13.18 7a4.867 4.867 0 0 1-4.862 4.862z"/><path d="M8.318 3.954A3.05 3.05 0 0 0 5.272 7a3.05 3.05 0 0 0 3.046 3.046A3.05 3.05 0 0 0 11.364 7a3.05 3.05 0 0 0-3.046-3.046zm0 5.272A2.228 2.228 0 0 1 6.092 7a2.23 2.23 0 0 1 2.226-2.226A2.23 2.23 0 0 1 10.544 7a2.228 2.228 0 0 1-2.226 2.226z"/></g><defs><clipPath id="a"><path fill="#fff" d="M0 0h14v14H0z"/></clipPath></defs></svg>