<svg width="90" height="66" viewBox="0 0 90 66" fill="none" xmlns="http://www.w3.org/2000/svg"><path d="M76.71 16.966H58.128v33.682h30.448v-15.16l-3.551-12.273a8.654 8.654 0 0 0-8.313-6.249z" fill="#F78411"/><path d="M84.13 35.332l-3.165-10.94a4.453 4.453 0 0 0-4.254-3.196H62.357v14.136H84.13z" fill="#84DBFF"/><path d="M84.133 35.327H62.35V21.19l21.783 14.137z" fill="#C2C7CC"/><path d="M84.13 35.332l-3.165-10.94a4.453 4.453 0 0 0-4.254-3.196H62.357L84.13 35.332z" fill="#E6E6E6"/><path d="M5.625.057h46.878a5.625 5.625 0 0 1 5.625 5.625v44.964H0V5.682A5.624 5.624 0 0 1 5.625.057z" fill="#FFA719"/><path d="M38.097.066v14.862l-2.175-2.175-2.28 2.28-2.278-2.28-2.278 2.28-2.281-2.28-2.308 2.28-2.276-2.28-2.201 2.201V.066h18.077z" fill="#E6E6E6"/><path d="M90 50.644V57H.008v-6.356H9.4a12.863 12.863 0 0 1 11.249-6.6c4.818 0 9.037 2.663 11.249 6.6H62.12a12.83 12.83 0 0 1 11.229-6.6c4.837 0 9.037 2.663 11.249 6.6H90z" fill="#666"/><path d="M82.332 56.96a8.982 8.982 0 0 1-8.983 8.983c-4.96 0-8.978-4.022-8.978-8.983a8.981 8.981 0 0 1 17.961 0z" fill="gray"/><path d="M76.96 56.96a3.61 3.61 0 0 1-7.218 0 3.608 3.608 0 0 1 3.611-3.607 3.607 3.607 0 0 1 3.607 3.607z" fill="#E6E6E6"/><path d="M29.624 56.96a8.982 8.982 0 1 1-17.965 0 8.982 8.982 0 0 1 17.965 0z" fill="gray"/><path d="M24.249 56.96a3.608 3.608 0 1 1-7.217-.001 3.608 3.608 0 0 1 7.217.001z" fill="#E6E6E6"/></svg>