<svg width="184" height="184" viewBox="0 0 184 184" fill="none" xmlns="http://www.w3.org/2000/svg"><circle cx="92" cy="92" r="62" fill="#fff" filter="url(#a)"/><path d="M81 103.5H68.5V92.432l1.25-2.5V84.75h10v5.182l1.25 2.5V103.5zm16.25 0h-12.5V92.432l1.25-2.5V84.75h10v5.182l1.25 2.5V103.5z" fill="#FFDDA6"/><path d="M97.25 92.432l-1.25-2.5V84.75h-5v18.75h6.25V92.432z" fill="#FCC368"/><path d="M114.875 116h-47.75c-4.48 0-8.125-3.645-8.125-8.125s3.645-8.125 8.125-8.125h47.75c4.48 0 8.125 3.645 8.125 8.125S119.355 116 114.875 116z" fill="#D8D7DA"/><path d="M114.875 99.75H91V116h23.875c4.48 0 8.125-3.645 8.125-8.125s-3.645-8.125-8.125-8.125z" fill="#C6C5CA"/><path d="M114.875 116h-47.75c-4.48 0-8.125-3.645-8.125-8.125s3.645-8.125 8.125-8.125h47.75c4.48 0 8.125 3.645 8.125 8.125S119.355 116 114.875 116zm-47.75-12.5a4.38 4.38 0 0 0-4.375 4.375 4.38 4.38 0 0 0 4.375 4.375h47.75a4.38 4.38 0 0 0 4.375-4.375 4.38 4.38 0 0 0-4.375-4.375h-47.75z" fill="#3E3D42"/><path d="M114.875 109.75a1.874 1.874 0 1 0 .001-3.749 1.874 1.874 0 0 0-.001 3.749z" fill="#2D2D30"/><path d="M67.125 109.75a1.875 1.875 0 1 0 0-3.75 1.875 1.875 0 0 0 0 3.75z" fill="#3E3D42"/><path d="M113.5 103.5H101V92.432l1.25-2.5V84.75h10v5.182l1.25 2.5V103.5z" fill="#FCC368"/><path d="M111 88.5h-7.5a3.129 3.129 0 0 1-3.125-3.125V78.5h13.75v6.875A3.129 3.129 0 0 1 111 88.5z" fill="#2D2D30"/><path d="M112.875 82.25h-11.25a4.38 4.38 0 0 1-4.375-4.375V72.25h20v5.625a4.38 4.38 0 0 1-4.375 4.375z" fill="#F74311"/><path d="M123 76H59V61h64v15z" fill="#FCC368"/><path d="M67.125 70.375a1.875 1.875 0 1 0 0-3.75 1.875 1.875 0 0 0 0 3.75zm6.25 0a1.875 1.875 0 1 0 0-3.75 1.875 1.875 0 0 0 0 3.75zM123 61H91v15h32V61z" fill="#F78411"/><path d="M114.875 99.75H91v3.75h23.875a4.38 4.38 0 0 1 4.375 4.375 4.38 4.38 0 0 1-4.375 4.375H91V116h23.875c4.48 0 8.125-3.645 8.125-8.125s-3.645-8.125-8.125-8.125z" fill="#2D2D30"/><path d="M110.375 125h-38.75v-19h38.75v19z" fill="#FFDDA6"/><path d="M79.75 116a1.875 1.875 0 1 0 0-3.75 1.875 1.875 0 0 0 0 3.75z" fill="#F78411"/><path d="M86 116a1.875 1.875 0 1 0 0-3.75 1.875 1.875 0 0 0 0 3.75z" fill="#FF5023"/><path d="M110.375 106H91v19h19.375v-19z" fill="#F78411"/><defs><filter id="a" x="0" y="0" width="184" height="184" filterUnits="userSpaceOnUse" color-interpolation-filters="sRGB"><feFlood flood-opacity="0" result="BackgroundImageFix"/><feColorMatrix in="SourceAlpha" values="0 0 0 0 0 0 0 0 0 0 0 0 0 0 0 0 0 0 127 0"/><feOffset/><feGaussianBlur stdDeviation="15"/><feColorMatrix values="0 0 0 0 0.968627 0 0 0 0 0.517647 0 0 0 0 0.0666667 0 0 0 0.2 0"/><feBlend in2="BackgroundImageFix" result="effect1_dropShadow"/><feBlend in="SourceGraphic" in2="effect1_dropShadow" result="shape"/></filter></defs></svg>