<svg width="184" height="184" viewBox="0 0 184 184" fill="none" xmlns="http://www.w3.org/2000/svg"><circle cx="92" cy="92" r="62" fill="#fff" filter="url(#a)"/><path d="M114.222 85.81H69.601v36.186h44.621V85.81z" fill="#E4E4E4"/><path d="M114.222 85.81H69.601v2.48h44.621v-2.48z" fill="#C2C7CC"/><path d="M90.054 108.035H74.001V122h16.053v-13.965z" fill="#FCC368"/><path d="M79.527 113.54v-5.504h4.991v5.497l-2.495-2.097-2.496 2.104z" fill="#fff"/><path d="M109.962 108.035H93.909V122h16.053v-13.965z" fill="#FCC368"/><path d="M99.434 113.54v-5.504h4.99v5.497l-2.494-2.097-2.496 2.104z" fill="#fff"/><path d="M100.007 94.066H83.954v13.966h16.053V94.066z" fill="#FCC368"/><path d="M89.48 99.574V94.07h4.991v5.498l-2.496-2.098-2.495 2.104z" fill="#fff"/><path d="M119.433 77.314V122h-5.478V86.209H70.001V122h-5.479V77.314h54.911z" fill="#F2F2F2"/><path d="M119.442 77.314h-54.92v3.484h54.92v-3.484z" fill="#E8EAEA"/><path d="M61.028 74.252L91.09 58.227a1.932 1.932 0 0 1 1.818 0l30.065 16.025c1.775.947 1.103 3.638-.911 3.638H61.936c-2.012 0-2.684-2.691-.908-3.638z" fill="#F74311"/><path fill-rule="evenodd" clip-rule="evenodd" d="M122.275 73.88c-.069.006-.14.01-.212.01H61.935a2.16 2.16 0 0 1-.208-.01L91.09 58.227a1.932 1.932 0 0 1 1.818 0l29.366 15.652z" fill="#F78411"/><defs><filter id="a" x="0" y="0" width="184" height="184" filterUnits="userSpaceOnUse" color-interpolation-filters="sRGB"><feFlood flood-opacity="0" result="BackgroundImageFix"/><feColorMatrix in="SourceAlpha" values="0 0 0 0 0 0 0 0 0 0 0 0 0 0 0 0 0 0 127 0"/><feOffset/><feGaussianBlur stdDeviation="15"/><feColorMatrix values="0 0 0 0 0.968627 0 0 0 0 0.517647 0 0 0 0 0.0666667 0 0 0 0.2 0"/><feBlend in2="BackgroundImageFix" result="effect1_dropShadow"/><feBlend in="SourceGraphic" in2="effect1_dropShadow" result="shape"/></filter></defs></svg>