<svg width="184" height="184" viewBox="0 0 184 184" fill="none" xmlns="http://www.w3.org/2000/svg"><circle cx="92" cy="92" r="62" fill="#fff" filter="url(#a)"/><path d="M106.692 80.23c-1.572-.76-5.316-3.125-7.876-5.118 0 0-4.066-3.295-9.946-.338-3.522 1.772-5.967 4.872-9.02 8.162a2.8 2.8 0 0 0 .374 4.141 3.791 3.791 0 0 0 4.826-.228l4.84-4.404a1.343 1.343 0 0 1 1.628.035s3.556 3.993 10.027 4.113l10.777 12.055c.665.713.949 1.642.867 2.543h5.769v-20.65c-11.185-.1-11.143.232-12.266-.31z" fill="#FCC368"/><path d="M112.322 98.647l-10.777-12.054c-6.47-.12-10.027-4.113-10.027-4.113a1.343 1.343 0 0 0-1.627-.035l-4.84 4.403a3.791 3.791 0 0 1-4.826.229 2.8 2.8 0 0 1-.375-4.142c2.66-2.653 5.043-6.16 9.02-8.16-1.195-.35-3.733-1.011-5.034-.413-3.087 1.42-6.566 5.162-8.026 5.868-1.12.542-1.251.213-10.769.31v20.651h6.467c7.284 0 20.66 13.977 20.66 13.977l.288.325a3.29 3.29 0 1 0 5.104-4.127l.243.26c1.198 1.286 3.209 1.459 4.558.333a3.292 3.292 0 0 0 .896-3.875 3.288 3.288 0 0 0 4.792-4.481 3.292 3.292 0 0 0 4.273-4.956z" fill="#FFDDA6"/><path d="M121.286 77.469a2.714 2.714 0 0 0-2.714 2.714v21.296a2.714 2.714 0 1 0 5.428 0V80.183a2.714 2.714 0 0 0-2.714-2.714zm-58.572 0A2.714 2.714 0 0 0 60 80.183v21.296a2.714 2.714 0 1 0 5.428 0V80.183a2.714 2.714 0 0 0-2.714-2.714z" fill="#F78411"/><path d="M121.286 91.916a2.714 2.714 0 0 1-2.714-2.714v12.278a2.714 2.714 0 1 0 5.428 0V89.203a2.714 2.714 0 0 1-2.714 2.714zm-58.572 0A2.714 2.714 0 0 1 60 89.202v12.277a2.714 2.714 0 1 0 5.428 0V89.202a2.714 2.714 0 0 1-2.714 2.714z" fill="#F74311"/><path d="M69.573 89.343c0-3.116.616-6.088 1.73-8.803h-6.261v20.65h6.467a3.164 3.164 0 0 1 .448-1.596 23.104 23.104 0 0 1-2.384-10.251z" fill="#FFDDA6"/><path d="M83.768 101.52a3.154 3.154 0 0 0-4.457-.237l-2.05 1.842-.49.442a3.156 3.156 0 1 0 4.22 4.694l2.54-2.284a3.156 3.156 0 0 0 .237-4.457z" fill="#FFD188"/><path d="M87.988 106.214a3.156 3.156 0 0 0-4.457-.237l-2.54 2.284a3.156 3.156 0 0 0 4.22 4.694c.59-.532 1.958-1.761 2.54-2.284a3.156 3.156 0 0 0 .237-4.457z" fill="#FFD188"/><path d="M92.208 110.907a3.156 3.156 0 0 0-4.457-.237l-2.54 2.284a3.156 3.156 0 0 0 4.219 4.694l2.54-2.284a3.156 3.156 0 0 0 .238-4.457zM79.549 96.826a3.156 3.156 0 0 0-4.457-.237l-2.541 2.284a3.156 3.156 0 1 0 4.22 4.694l.49-.441.892-.801 1.158-1.042a3.156 3.156 0 0 0 .238-4.457z" fill="#FFD188"/><path d="M75.083 100.835a3.155 3.155 0 0 1 .084-4.309c-.108.091.278-.254-2.616 2.348a3.155 3.155 0 1 0 4.22 4.694l.49-.442.892-.801c1.196-1.079 1.178-1.052 1.307-1.185a3.154 3.154 0 0 1-4.377-.305z" fill="#FCC368"/><path d="M79.302 105.53a3.155 3.155 0 0 1 .085-4.309c-.145.122.08-.073-1.234 1.105l-1.382 1.242a3.156 3.156 0 0 0 4.22 4.694l1.381-1.242c1.197-1.079 1.179-1.053 1.308-1.185a3.156 3.156 0 0 1-4.378-.305z" fill="#FCC368"/><path d="M83.522 110.223a3.155 3.155 0 0 1 .085-4.309c-.104.087-2.513 2.254-2.617 2.347a3.156 3.156 0 0 0 4.22 4.694c.25-.225 2.592-2.326 2.69-2.427a3.155 3.155 0 0 1-4.378-.305z" fill="#FCC368"/><path d="M87.742 114.917a3.155 3.155 0 0 1 .084-4.309c-.103.087-2.513 2.255-2.616 2.348a3.156 3.156 0 1 0 4.22 4.694c2.775-2.495 2.587-2.322 2.69-2.428a3.154 3.154 0 0 1-4.378-.305z" fill="#FCC368"/><defs><filter id="a" x="0" y="0" width="184" height="184" filterUnits="userSpaceOnUse" color-interpolation-filters="sRGB"><feFlood flood-opacity="0" result="BackgroundImageFix"/><feColorMatrix in="SourceAlpha" values="0 0 0 0 0 0 0 0 0 0 0 0 0 0 0 0 0 0 127 0"/><feOffset/><feGaussianBlur stdDeviation="15"/><feColorMatrix values="0 0 0 0 0.968627 0 0 0 0 0.517647 0 0 0 0 0.0666667 0 0 0 0.2 0"/><feBlend in2="BackgroundImageFix" result="effect1_dropShadow"/><feBlend in="SourceGraphic" in2="effect1_dropShadow" result="shape"/></filter></defs></svg>