<svg width="134" height="50" viewBox="0 0 134 50" fill="none" xmlns="http://www.w3.org/2000/svg"><g clip-path="url(#a)"><path d="M4.646 45.247c.002.26-.051.518-.158.755a1.62 1.62 0 0 1-.483.606 2.476 2.476 0 0 1-.827.41 4.209 4.209 0 0 1-1.19.149h-.576l-.539-.075-.483-.12a2.313 2.313 0 0 1-.39-.187v-.792c.293.159.605.278.93.354.337.08.683.12 1.03.12a3.7 3.7 0 0 0 .93-.092 1.72 1.72 0 0 0 .585-.252.931.931 0 0 0 .325-.382c.069-.152.104-.318.103-.485a.934.934 0 0 0-.511-.932 3.142 3.142 0 0 0-1.534-.251h-.743v-.69h.743c.451.03.902-.067 1.301-.28a.93.93 0 0 0 .428-.857.934.934 0 0 0-.381-.764 1.854 1.854 0 0 0-1.143-.298c-.33.002-.657.045-.976.13-.32.084-.631.2-.929.345v-.755a7 7 0 0 1 .93-.289c.34-.08.69-.12 1.04-.121a3.65 3.65 0 0 1 1.013.121c.252.069.489.186.697.345.178.14.318.323.408.531.09.213.134.441.13.671.012.36-.11.713-.343.988-.244.272-.57.456-.93.522.21.012.417.056.614.13.186.076.357.187.502.327.137.134.244.296.316.475.08.204.119.423.111.643zm5.9 1.761v-1.137a2.336 2.336 0 0 1-.845.932 2.235 2.235 0 0 1-1.208.336c-.281.004-.56-.04-.827-.13a1.783 1.783 0 0 1-.623-.373 1.632 1.632 0 0 1-.4-.578 1.87 1.87 0 0 1-.139-.718 1.87 1.87 0 0 1 .53-1.38 2.858 2.858 0 0 1 1.617-.67l1.933-.28c0-1.242-.474-1.864-1.422-1.864a3.098 3.098 0 0 0-2.063.811v-.867c.14-.101.29-.188.446-.26a4.369 4.369 0 0 1 1.106-.326c.192-.016.384-.016.576 0a2.057 2.057 0 0 1 1.607.596c.384.506.566 1.137.512 1.77v4.148l-.8-.01zm-1.635-3.094a4.949 4.949 0 0 0-.734.159 1.496 1.496 0 0 0-.502.251.932.932 0 0 0-.288.392 1.56 1.56 0 0 0-.093.578c0 .163.03.324.093.475a1.069 1.069 0 0 0 .678.615c.18.06.369.088.558.084a1.854 1.854 0 0 0 1.385-.606c.175-.2.31-.43.4-.68.1-.278.15-.572.148-.867v-.624l-1.645.223zm10.649 3.094v-5.377l-.065.177-.103.289-.13.345-.14.354-1.653 4.203h-.688l-1.747-4.203-.102-.261-.12-.326-.112-.27-.093-.261v5.377h-.669v-6.421h.93l1.858 4.287.12.298.13.336.121.326.093.251.084-.214.111-.307.13-.345.121-.326 1.72-4.316h1.021V47l-.817.01zm6.077.15a3.245 3.245 0 0 1-1.273-.233 2.706 2.706 0 0 1-.93-.671c-.27-.3-.475-.652-.604-1.035a4.027 4.027 0 0 1-.213-1.342 4.244 4.244 0 0 1 .223-1.426c.134-.394.35-.756.632-1.062.277-.296.617-.525.994-.671.415-.16.856-.238 1.3-.233.426-.008.85.068 1.246.223.355.145.672.368.93.653.264.303.463.659.584 1.044.143.451.212.923.205 1.398.006.462-.066.922-.214 1.36a3.07 3.07 0 0 1-.641 1.072 2.704 2.704 0 0 1-.93.68c-.415.17-.86.253-1.31.243zm.065-5.974a2.372 2.372 0 0 0-.93.177 1.977 1.977 0 0 0-.724.522 2.37 2.37 0 0 0-.465.848c-.11.368-.164.752-.158 1.137-.005.363.048.725.158 1.072.097.3.252.579.455.82.196.226.441.404.716.522.598.233 1.26.233 1.858 0 .27-.114.508-.29.697-.513a2.28 2.28 0 0 0 .428-.83c.101-.37.148-.753.139-1.136a2.989 2.989 0 0 0-.567-1.967 2.016 2.016 0 0 0-1.607-.652zm6.058 4.799v3.961h-.79v-9.32h.79v1.221c.21-.418.532-.77.93-1.015a2.782 2.782 0 0 1 2.425-.13c.313.142.59.356.808.623a2.8 2.8 0 0 1 .51.979c.124.424.184.864.178 1.305.007.488-.06.975-.196 1.444a3.33 3.33 0 0 1-.566 1.119c-.25.31-.568.56-.93.727a2.697 2.697 0 0 1-1.198.26 2.151 2.151 0 0 1-2.007-1.174h.046zm0-1.621c-.001.28.05.558.149.82.093.247.232.475.409.67.176.196.391.352.631.458.258.114.537.171.818.167.3.003.597-.067.864-.205a1.86 1.86 0 0 0 .679-.606 2.8 2.8 0 0 0 .418-.931 4.47 4.47 0 0 0 .148-1.184c.003-.34-.044-.68-.139-1.007a2.294 2.294 0 0 0-.39-.764 1.694 1.694 0 0 0-.604-.485 1.854 1.854 0 0 0-.8-.167c-.32-.01-.637.054-.928.186-.26.118-.49.29-.679.503a2.22 2.22 0 0 0-.427.746 2.73 2.73 0 0 0-.149.932v.867zm9.738 2.796a3.245 3.245 0 0 1-1.273-.233 2.704 2.704 0 0 1-.93-.671c-.27-.3-.475-.652-.603-1.035a4.027 4.027 0 0 1-.214-1.342 4.241 4.241 0 0 1 .223-1.426c.135-.394.35-.756.632-1.062.277-.296.617-.525.994-.671.415-.16.857-.238 1.301-.233.426-.008.849.068 1.245.223.355.144.673.367.93.653.264.303.464.659.585 1.044.146.451.218.923.214 1.398.006.462-.067.922-.214 1.36-.132.389-.34.747-.613 1.053a2.706 2.706 0 0 1-.93.68c-.425.182-.885.27-1.347.262zm.065-5.974a2.372 2.372 0 0 0-.93.177 1.979 1.979 0 0 0-.724.522 2.38 2.38 0 0 0-.465.848 3.74 3.74 0 0 0-.158 1.137c-.005.363.048.725.158 1.072.098.3.252.579.456.82.196.226.44.404.715.522a2.56 2.56 0 0 0 1.859 0c.269-.114.508-.29.697-.513.198-.244.343-.526.427-.83a3.97 3.97 0 0 0 .167-1.136 2.989 2.989 0 0 0-.567-1.967 2.016 2.016 0 0 0-1.635-.652zm12.052 5.824l-2.918-3.131v3.131h-.8v-3.131l-2.917 3.131h-1.096l3.16-3.27-3.011-3.104h1.012l2.788 3.01v-3.01h.771v3.01l2.834-3.01h1.022l-3.029 3.094 3.169 3.271-.985.01zm3.205-3.038c0 .357.054.712.159 1.053.087.29.232.56.427.793.186.214.418.383.678.493.295.12.611.178.93.168a3.228 3.228 0 0 0 2.025-.755v.783a3.708 3.708 0 0 1-2.211.653 2.91 2.91 0 0 1-1.218-.224 2.406 2.406 0 0 1-.929-.652 2.966 2.966 0 0 1-.567-1.044 4.674 4.674 0 0 1-.12-1.435 3.95 3.95 0 0 1 .213-1.324 3.29 3.29 0 0 1 .604-1.053 2.79 2.79 0 0 1 .93-.699c.36-.17.754-.256 1.152-.252.373-.007.744.066 1.087.215.308.139.579.35.79.615a2.8 2.8 0 0 1 .483.932c.116.415.172.845.167 1.277v.4l-4.6.056zm3.773-.699a2.438 2.438 0 0 0-.474-1.547 1.543 1.543 0 0 0-1.263-.55 1.926 1.926 0 0 0-.744.14 1.784 1.784 0 0 0-.604.41 2.25 2.25 0 0 0-.427.662c-.12.28-.202.574-.242.876l3.754.01zm7.304 3.737v-2.963h-3.485v2.963h-.79v-6.374h.79v2.712h3.494v-2.712h.79v6.374h-.8zm3.883-7.978a.554.554 0 0 1-.566-.568.532.532 0 0 1 .167-.4.558.558 0 0 1 .4-.159.619.619 0 0 1 .223 0 .537.537 0 0 1 .186.112c.05.05.092.11.12.177a.54.54 0 0 1 0 .224.58.58 0 0 1 0 .223.532.532 0 0 1-.306.308.575.575 0 0 1-.223.084zm-.39 7.978v-6.374h.79v6.374h-.79zm11.903 0v-5.675H79.8v5.675h-.818v-6.374h5.083v6.374h-.772zm4.284-1.025v3.961h-.79v-9.32h.79v1.221c.21-.418.532-.77.93-1.015a2.782 2.782 0 0 1 2.424-.13c.314.142.59.356.809.623.233.29.407.622.51.979.124.424.184.864.177 1.305a4.9 4.9 0 0 1-.195 1.444 3.331 3.331 0 0 1-.567 1.119c-.25.31-.568.56-.929.727a2.697 2.697 0 0 1-1.199.26 2.15 2.15 0 0 1-2.007-1.174h.047zm0-1.621c-.001.28.05.558.149.82.093.247.231.475.408.67.177.196.392.352.632.458.258.114.537.171.818.167.3.003.597-.067.864-.205.249-.15.46-.358.613-.606a2.8 2.8 0 0 0 .419-.931 4.46 4.46 0 0 0 .148-1.184 3.47 3.47 0 0 0-.14-1.007 2.296 2.296 0 0 0-.39-.764 1.693 1.693 0 0 0-.603-.485 1.854 1.854 0 0 0-.8-.167c-.32-.01-.637.054-.929.186-.259.118-.49.29-.678.503a2.22 2.22 0 0 0-.427.746c-.104.3-.154.615-.15.932l.066.867zm9.738 2.796a3.245 3.245 0 0 1-1.273-.233 2.706 2.706 0 0 1-.929-.671c-.27-.3-.476-.652-.604-1.035a4.027 4.027 0 0 1-.214-1.342 4.241 4.241 0 0 1 .224-1.426c.134-.394.35-.756.631-1.062.278-.296.617-.525.995-.671.415-.16.856-.238 1.3-.233.426-.008.85.068 1.246.223.354.145.672.368.929.653.265.303.464.659.585 1.044.124.455.174.927.149 1.398.006.462-.066.922-.214 1.36-.132.389-.34.747-.613 1.053a2.703 2.703 0 0 1-.93.68 3.272 3.272 0 0 1-1.282.262zm.065-5.974a2.372 2.372 0 0 0-.929.177 1.977 1.977 0 0 0-.725.522c-.21.247-.369.536-.464.848a3.74 3.74 0 0 0-.158 1.137c-.006.363.048.725.158 1.072.097.3.252.579.455.82.196.226.44.404.716.522.597.233 1.26.233 1.858 0 .27-.114.508-.29.697-.513.198-.244.344-.526.427-.83.103-.363.153-.74.149-1.118a2.989 2.989 0 0 0-.567-1.966 2.016 2.016 0 0 0-1.617-.671zm10.026 7.819v-1.995h-4.897v1.995h-.697v-2.684h.567c.276-.402.519-.826.725-1.268a9.8 9.8 0 0 0 .52-1.388c.143-.486.252-.981.326-1.482.073-.513.114-1.03.12-1.547h3.067v5.685h.929v2.684h-.66zm-1.068-7.67h-1.571a12.188 12.188 0 0 1-.464 2.59 9.772 9.772 0 0 1-1.069 2.396h3.104v-4.986zm5.603 6.831c-.182.52-.473.993-.855 1.389a1.66 1.66 0 0 1-1.171.447 1.79 1.79 0 0 1-.576-.084v-.745l.279.074h.279c.248.005.489-.08.678-.242.222-.207.394-.462.502-.746l.548-1.305-2.444-6.337h.883l1.858 5.042c0 .065.047.14.075.224l.065.251.055-.214c.02-.082.045-.163.075-.242l1.932-5.07h.837l-3.02 7.558zm8.465-1.156l-2.89-3.094v3.094h-.79v-6.374h.79v2.982l2.788-2.982h1.031l-3.011 3.094 3.178 3.28h-1.096zm4.701-5.675v5.675h-.79v-5.675h-1.914v-.7h4.646v.7h-1.942zm8.14 5.675v-5.2l-.083.14-.084.14-3.494 4.92h-.725v-6.374h.753v5.154c.026-.068.057-.133.093-.196.045-.08.095-.158.149-.233l3.4-4.725h.753v6.374h-.762z" fill="#201600"/><path d="M24.215 3.383H1.29l9.376 9.394a5.165 5.165 0 0 1 6.636.576 5.198 5.198 0 0 1 .575 6.656l9.292 9.32V6.384c0-.79-.31-1.547-.863-2.109a2.988 2.988 0 0 0-2.092-.892zM11.15 11.118a.667.667 0 0 1-.817-.251l-2.11-3.188a1.391 1.391 0 0 1 .623-2.087 1.38 1.38 0 0 1 1.858.988l.809 3.728a.673.673 0 0 1-.363.81zm7.787-3.495l-2.063 3.216a.67.67 0 0 1-1.217-.504l.762-3.727a1.39 1.39 0 0 1 1.27-1.1c.2-.012.401.02.588.093a1.384 1.384 0 0 1 .795.86 1.393 1.393 0 0 1-.144 1.162h.009zm.855 6.114l3.187-2.106a1.382 1.382 0 0 1 2.036.62 1.393 1.393 0 0 1-.431 1.641 1.383 1.383 0 0 1-.546.255l-3.716.811a.667.667 0 0 1-.772-.393.673.673 0 0 1 .26-.828h-.018zm5.296 7.987a1.39 1.39 0 0 1-.866.802 1.381 1.381 0 0 1-1.169-.159l-3.205-2.069a.67.67 0 0 1 .501-1.22l3.717.764a1.383 1.383 0 0 1 1.12 1.283c.012.204-.021.41-.098.6z" fill="#E7BF47"/><path d="M20.117 25.629l-1.384-2.05.232 1.305a1.392 1.392 0 0 1-.773 1.51 1.382 1.382 0 0 1-1.928-.907 1.393 1.393 0 0 1-.022-.603l.642-3.346-.28-.28a5.177 5.177 0 0 1-4.134.876.66.66 0 0 1 .214.159l2.536 2.87a1.39 1.39 0 0 1-1.522 2.205 1.385 1.385 0 0 1-.838-.826l-.455-1.24-.149 2.48a1.394 1.394 0 0 1-.561 1.04 1.383 1.383 0 0 1-2.206-1.11 1.392 1.392 0 0 1 .128-.592l1.04-2.255-.984.876a1.382 1.382 0 0 1-2.304-.897 1.393 1.393 0 0 1 .91-1.442l3.578-1.324a.658.658 0 0 1 .27 0 5.172 5.172 0 0 1-3.476-3.327l-.074-.242a.664.664 0 0 1 0 .26L7.22 22.312a1.39 1.39 0 0 1-.844.826 1.379 1.379 0 0 1-1.172-.127 1.386 1.386 0 0 1-.612-1.587 1.39 1.39 0 0 1 .296-.528l.882-.988-2.258 1.034a1.382 1.382 0 0 1-1.926-.927 1.393 1.393 0 0 1 .692-1.558c.18-.096.38-.151.584-.162l2.472-.14-1.236-.447a1.384 1.384 0 0 1-.894-1.443 1.392 1.392 0 0 1 1.168-1.23 1.38 1.38 0 0 1 1.129.334l2.862 2.526a.68.68 0 0 1 .158.214 5.206 5.206 0 0 1 .864-4.129l-.316-.316-3.262.596a1.382 1.382 0 0 1-1.505-.78 1.392 1.392 0 0 1-.13-.59 1.392 1.392 0 0 1 1.044-1.333 1.38 1.38 0 0 1 .6-.018l1.292.251-2.025-1.416a1.388 1.388 0 0 1-.586-1.296L0 4.576V27.67c0 .796.315 1.56.876 2.122a2.988 2.988 0 0 0 2.116.879h23.026l-4.451-4.464a1.38 1.38 0 0 1-1.45-.578zm11.355-14.445a.737.737 0 0 1 .26-.634.853.853 0 0 1 .502-.196h.873a1.187 1.187 0 0 1 1.069.83c.133.273.352.496.622.633.286.155.605.239.93.243h2.37c.418.027.837-.063 1.207-.261a.93.93 0 0 0 .4-.932.935.935 0 0 0-.4-.932 2.26 2.26 0 0 0-1.208-.15H36.24a.696.696 0 0 1-.697-.698v-.615a.7.7 0 0 1 .195-.485.623.623 0 0 1 .474-.214h1.672c.445.009.884-.1 1.273-.317a.931.931 0 0 0 .419-.876.934.934 0 0 0-.419-.876 2.512 2.512 0 0 0-1.319-.27h-1.803a1.696 1.696 0 0 0-1.663.931 1.072 1.072 0 0 1-1.004.7h-.845a.658.658 0 0 1-.558-.262.934.934 0 0 1-.204-.568 2.42 2.42 0 0 1 1.282-2.088 5.053 5.053 0 0 1 2.788-.82h2.267c2.887 0 4.33 1.088 4.33 3.262a2.55 2.55 0 0 1-1.022 2.144 2.372 2.372 0 0 1 1.17 2.152 2.804 2.804 0 0 1-1.077 2.489 5.274 5.274 0 0 1-3.085.764h-2.89a4.98 4.98 0 0 1-2.787-.83 2.475 2.475 0 0 1-1.264-2.124zm11.82 2.236v-.717a.663.663 0 0 1 .204-.494.679.679 0 0 1 .493-.205h.613l1.384-5.648c.483-1.957 2.094-2.936 4.832-2.936h4.005a.676.676 0 0 1 .492.205.661.661 0 0 1 .205.494v9.32a.655.655 0 0 1-.205.485.688.688 0 0 1-.492.195H43.99a.696.696 0 0 1-.697-.699zm4.097-1.407h5.269V5.536h-2.184a1.753 1.753 0 0 0-1.17.391 1.987 1.987 0 0 0-.632 1.081l-1.283 5.005zm20.378 1.034a6.566 6.566 0 0 1-4.46 1.342 6.575 6.575 0 0 1-4.46-1.341 5.352 5.352 0 0 1-1.525-4.241 5.356 5.356 0 0 1 1.524-4.231 6.593 6.593 0 0 1 4.46-1.333 6.574 6.574 0 0 1 4.46 1.333 5.35 5.35 0 0 1 1.524 4.231 5.373 5.373 0 0 1-1.523 4.24zm-2.035-6.896a3.71 3.71 0 0 0-4.86 0 4.054 4.054 0 0 0-.753 2.665 4.04 4.04 0 0 0 .753 2.666 3.757 3.757 0 0 0 4.86 0 4.045 4.045 0 0 0 .752-2.666 4.067 4.067 0 0 0-.743-2.702l-.01.037zm5.389 7.269V4.1a.7.7 0 0 1 .205-.503.66.66 0 0 1 .492-.205h5.668c2.998 0 4.498 1.386 4.498 4.157 0 2.77-1.5 4.169-4.498 4.194h-3.568v1.677a.7.7 0 0 1-.697.7h-1.394a.685.685 0 0 1-.501-.206.672.672 0 0 1-.205-.494zm2.788-3.784h2.713a3.5 3.5 0 0 0 1.859-.419 1.799 1.799 0 0 0 .65-1.622 1.804 1.804 0 0 0-.65-1.621 3.495 3.495 0 0 0-1.859-.42h-2.704l-.01 4.082zm19.578 3.412a6.565 6.565 0 0 1-4.46 1.342 6.575 6.575 0 0 1-4.47-1.342 5.352 5.352 0 0 1-1.523-4.24 5.355 5.355 0 0 1 1.523-4.27 6.593 6.593 0 0 1 4.46-1.332 6.574 6.574 0 0 1 4.46 1.333 5.35 5.35 0 0 1 1.525 4.23 5.375 5.375 0 0 1-1.515 4.279zM91.452 6.15a3.71 3.71 0 0 0-4.86 0 4.054 4.054 0 0 0-.752 2.666 4.03 4.03 0 0 0 .752 2.665 3.756 3.756 0 0 0 4.86 0 4.044 4.044 0 0 0 .753-2.665 4.063 4.063 0 0 0-.744-2.703l-.009.037zm5.389-2.012a.71.71 0 0 1 .707-.708h6.039a3.996 3.996 0 0 1 3.271 1.286c.408.511.619 1.153.595 1.808a2.43 2.43 0 0 1-1.004 1.92 2.534 2.534 0 0 1 1.431 2.385 2.846 2.846 0 0 1-1.143 2.46 4.634 4.634 0 0 1-2.787.84h-6.384a.685.685 0 0 1-.502-.205.672.672 0 0 1-.204-.494l-.019-9.292zm2.788 3.448h3.977a1.021 1.021 0 0 0 .753-.28 1.053 1.053 0 0 0 .278-.782 1.055 1.055 0 0 0-.278-.783 1.02 1.02 0 0 0-.753-.28h-3.977v2.125zm0 4.53h4.256a1.112 1.112 0 0 0 .873-.345c.214-.262.324-.594.307-.932a1.365 1.365 0 0 0-.307-.932 1.116 1.116 0 0 0-.873-.345h-4.256v2.554zm10.082 1.304V4.1a.694.694 0 0 1 .201-.506.686.686 0 0 1 .505-.202h1.31a.676.676 0 0 1 .492.205.668.668 0 0 1 .205.494v7.456l4.228-7.456c.117-.2.275-.37.464-.503a.984.984 0 0 1 .549-.205h2.202a.659.659 0 0 1 .492.205.695.695 0 0 1 .205.503v9.32a.685.685 0 0 1-.435.648.683.683 0 0 1-.272.05h-1.31a.7.7 0 0 1-.697-.699V6.525l-3.884 6.915a1.5 1.5 0 0 1-.483.494 1.104 1.104 0 0 1-.604.205h-2.462a.685.685 0 0 1-.502-.205.672.672 0 0 1-.204-.513zm13.269 0V4.1a.694.694 0 0 1 .201-.506.686.686 0 0 1 .505-.202h1.31a.676.676 0 0 1 .492.205.668.668 0 0 1 .205.494v7.456l4.228-7.456c.117-.2.275-.37.464-.503a.984.984 0 0 1 .549-.205h2.192a.659.659 0 0 1 .493.205.695.695 0 0 1 .204.503v9.32a.669.669 0 0 1-.204.494.685.685 0 0 1-.502.205h-1.31a.697.697 0 0 1-.697-.7V6.525l-3.884 6.915a1.51 1.51 0 0 1-.483.494 1.105 1.105 0 0 1-.604.205h-2.463a.682.682 0 0 1-.501-.205.658.658 0 0 1-.152-.236.656.656 0 0 1-.043-.277zM125.907.373c0-.255.136-.382.408-.382h.614a.517.517 0 0 1 .511.382.925.925 0 0 0 .929.53.924.924 0 0 0 .929-.53.54.54 0 0 1 .521-.382h.613c.272 0 .409.127.409.382a2.04 2.04 0 0 1-.688 1.621c-.51.417-1.155.63-1.812.597a2.653 2.653 0 0 1-1.812-.597 2.032 2.032 0 0 1-.613-1.612l-.009-.01z" fill="#4797C5"/><path d="M31.955 29.907V19.57a.775.775 0 0 1 .223-.559.735.735 0 0 1 .548-.233h10.742a.74.74 0 0 1 .548.233.764.764 0 0 1 .223.56v10.335a.74.74 0 0 1-.232.55.78.78 0 0 1-.558.223h-1.533a.76.76 0 0 1-.557-.223.746.746 0 0 1-.233-.55v-8.77h-6.049v8.78a.785.785 0 0 1-.78.782h-1.552a.762.762 0 0 1-.558-.224.745.745 0 0 1-.232-.568zm15.843 0V19.57a.775.775 0 0 1 .223-.559.735.735 0 0 1 .548-.233h6.319c3.339 0 5.008 1.553 5.008 4.66s-1.67 4.66-5.008 4.66H50.91v1.864a.785.785 0 0 1-.78.783h-1.552a.761.761 0 0 1-.558-.224.744.744 0 0 1-.223-.615zm3.122-4.222h2.974a3.893 3.893 0 0 0 2.109-.466 2.004 2.004 0 0 0 .725-1.808 2.01 2.01 0 0 0-.725-1.808 3.894 3.894 0 0 0-2.11-.466h-2.982l.01 4.548zm22.617 3.775a7.307 7.307 0 0 1-4.962 1.49 7.326 7.326 0 0 1-4.971-1.49c-1.134-.995-1.7-2.567-1.7-4.716 0-2.15.566-3.722 1.7-4.716a7.334 7.334 0 0 1 4.971-1.482 7.316 7.316 0 0 1 4.962 1.482c1.152.988 1.728 2.557 1.728 4.706 0 2.15-.576 3.725-1.728 4.725zm-2.267-7.69a4.175 4.175 0 0 0-5.408 0 4.512 4.512 0 0 0-.837 2.964 4.493 4.493 0 0 0 .837 2.964 4.184 4.184 0 0 0 5.408 0 4.502 4.502 0 0 0 .836-2.964 4.52 4.52 0 0 0-.836-2.963zm5.389 8.137v-.802a.738.738 0 0 1 .223-.55.754.754 0 0 1 .548-.223h.623l1.542-6.282c.533-2.18 2.326-3.27 5.38-3.27h4.47a.75.75 0 0 1 .548.223.736.736 0 0 1 .232.55v10.372a.729.729 0 0 1-.232.541.76.76 0 0 1-.548.224h-12.08a.78.78 0 0 1-.78-.783h.074zm4.646-1.566h5.872v-7.204h-2.509a1.948 1.948 0 0 0-1.3.429 2.21 2.21 0 0 0-.67 1.202l-1.393 5.573zm14.997-.149l1.394.149h.177c1.096 0 1.846-.72 2.248-2.162h-.697a5.433 5.433 0 0 1-3.252-.848 6.589 6.589 0 0 1-2.007-2.796l-1.31-2.964a.599.599 0 0 1 0-.559.493.493 0 0 1 .455-.233h1.747a1.103 1.103 0 0 1 1.097.755l.929 2.311a3.6 3.6 0 0 0 1.06 1.5 2.67 2.67 0 0 0 1.681.495h1.022l1.496-4.287c.07-.23.214-.43.409-.569.183-.134.405-.206.632-.205h1.672a.506.506 0 0 1 .446.177.581.581 0 0 1 .121.317.816.816 0 0 1 0 .261l-2.694 7.745a5.27 5.27 0 0 1-1.701 2.516 5.043 5.043 0 0 1-3.168.885H96.06a.76.76 0 0 1-.558-.223.746.746 0 0 1-.232-.55v-.932a.776.776 0 0 1 .487-.729.77.77 0 0 1 .303-.054h.241zm24.15 2.134c0 .243-.142.364-.427.364h-1.859a1.348 1.348 0 0 1-.697-.224 1.772 1.772 0 0 1-.576-.55l-1.459-2.32a4.96 4.96 0 0 0-1.05-1.277 1.965 1.965 0 0 0-1.273-.429h-1.784v4.035a.729.729 0 0 1-.232.541.758.758 0 0 1-.548.224h-1.552a.75.75 0 0 1-.558-.233.778.778 0 0 1-.232-.56V19.572a.793.793 0 0 1 .232-.568.747.747 0 0 1 .558-.242h1.552a.734.734 0 0 1 .548.242.8.8 0 0 1 .232.568v3.98h1.784c.46.009.91-.132 1.283-.4a3.936 3.936 0 0 0 1.05-1.287l1.235-2.293a1.354 1.354 0 0 1 1.19-.801h1.914c.266 0 .4.115.4.345-.01.16-.058.317-.14.456l-1.793 3.262a4.813 4.813 0 0 1-.874 1.184 2.71 2.71 0 0 1-1.263.652c.433.117.823.357 1.124.69.38.38.72.798 1.013 1.249l2.072 3.308a.865.865 0 0 1 .13.41zm1.348-9.972v-.783a.753.753 0 0 1 .222-.569.758.758 0 0 1 .567-.223h10.5a.76.76 0 0 1 .738.485.77.77 0 0 1 .052.307v.783a.764.764 0 0 1-.223.56.77.77 0 0 1-.567.223h-3.716v8.788a.73.73 0 0 1-.233.541.765.765 0 0 1-.548.224h-1.561a.763.763 0 0 1-.548-.224.73.73 0 0 1-.233-.54v-8.789h-3.716a.773.773 0 0 1-.567-.224.753.753 0 0 1-.167-.559z" fill="#E7BF47"/></g><defs><clipPath id="a"><path fill="#fff" d="M0 0h134v50H0z"/></clipPath></defs></svg>