<svg width="14" height="14" viewBox="0 0 14 14" fill="none" xmlns="http://www.w3.org/2000/svg"><path d="M10.705 6.736c0-.99-.417-1.96-1.144-2.66-.15-.145-.524-.446-.524-1.028V2.39A1.232 1.232 0 0 0 8.627 0H5.346a1.232 1.232 0 0 0-.41 2.39v.677c0 .567-.336.845-.56 1.069a3.667 3.667 0 0 0-1.081 2.61v5.203c0 1.131.92 2.051 2.05 2.051H8.63c1.142 0 2.073-.918 2.075-2.047V6.736zM5.345.82h3.282a.41.41 0 0 1 0 .82H5.346a.41.41 0 0 1 0-.82zm-.389 3.896c.23-.23.8-.714.8-1.65v-.605h2.46v.587c0 .555.23 1.093.629 1.478l.147.141c.567.547.898 1.3.898 2.07v1.487c-.773.09-1.855-.17-2.49-.594l-.372-.247a4.476 4.476 0 0 0-2.91-.74 2.85 2.85 0 0 1 .838-1.927zM8.63 13.18H5.346c-.679 0-1.23-.552-1.23-1.23V7.472c.714-.08 1.874.204 2.457.592l.372.248c.855.57 1.906.835 2.945.736v2.903c-.001.677-.57 1.228-1.26 1.228z" fill="#000"/></svg>