<svg width="14" height="16" viewBox="0 0 14 16" fill="none" xmlns="http://www.w3.org/2000/svg"><path d="M6.747 8.62h.106c.97-.016 1.756-.357 2.336-1.01 1.275-1.438 1.063-3.903 1.04-4.138-.083-1.766-.918-2.61-1.607-3.005C8.11.172 7.51.013 6.84 0h-.057c-.368 0-1.09.06-1.782.454-.696.394-1.544 1.239-1.627 3.018-.023.235-.235 2.7 1.04 4.138.577.653 1.362.994 2.333 1.01zM4.258 3.556c0-.01.004-.02.004-.026C4.372 1.153 6.058.898 6.78.898h.04c.894.02 2.415.384 2.518 2.63 0 .01 0 .02.003.027.003.023.235 2.276-.818 3.462-.418.47-.974.703-1.707.71h-.033c-.729-.007-1.289-.24-1.703-.71-1.05-1.18-.825-3.442-.822-3.462z" fill="#F78411"/><path d="M13.609 12.71v-.01c0-.026-.004-.053-.004-.083-.02-.656-.063-2.19-1.5-2.68l-.034-.01c-1.494-.381-2.736-1.243-2.75-1.252a.447.447 0 1 0-.513.732c.056.04 1.375.957 3.025 1.381.772.275.858 1.1.881 1.856 0 .03 0 .056.003.083.004.298-.016.758-.07 1.024-.536.304-2.64 1.358-5.84 1.358-3.188 0-5.305-1.057-5.845-1.362a5.693 5.693 0 0 1-.07-1.024c0-.026.004-.053.004-.082.023-.756.109-1.58.88-1.856 1.65-.424 2.97-1.345 3.026-1.382a.447.447 0 1 0-.514-.732c-.013.01-1.249.872-2.75 1.253a.422.422 0 0 0-.033.01c-1.438.493-1.48 2.027-1.5 2.68 0 .03 0 .056-.004.083v.01c-.003.172-.007 1.057.169 1.5a.425.425 0 0 0 .172.21C.442 14.482 2.824 16 6.81 16c3.986 0 6.368-1.52 6.468-1.584a.444.444 0 0 0 .172-.208c.165-.44.162-1.325.159-1.498z" fill="#F78411"/></svg>