<svg width="16" height="16" viewBox="0 0 16 16" fill="none" xmlns="http://www.w3.org/2000/svg"><path d="M13.28 9.77c-.327-.34-.722-.521-1.14-.521-.416 0-.814.178-1.155.517L9.92 10.825c-.088-.047-.175-.091-.26-.135a4.329 4.329 0 0 1-.334-.178c-.999-.631-1.907-1.455-2.777-2.52-.422-.53-.706-.978-.911-1.431.276-.252.533-.514.783-.766.094-.095.188-.192.283-.286.709-.706.709-1.62 0-2.325l-.921-.918c-.105-.104-.213-.211-.314-.319a15.89 15.89 0 0 0-.635-.625C4.506 1 4.115.828 3.703.828c-.412 0-.81.171-1.147.494l-.007.007L1.4 2.48c-.431.43-.678.955-.732 1.563-.08.981.21 1.895.432 2.493.547 1.469 1.363 2.83 2.582 4.288a15.87 15.87 0 0 0 5.288 4.123c.776.366 1.812.8 2.97.873.07.004.144.007.212.007.78 0 1.434-.279 1.947-.833.004-.007.01-.01.014-.017.175-.212.378-.403.59-.608.145-.138.294-.282.439-.434.334-.346.51-.749.51-1.162 0-.417-.18-.817-.52-1.153L13.28 9.77zm1.208 3.538c-.003 0-.003.003 0 0-.131.141-.266.269-.412.41a8.87 8.87 0 0 0-.65.672c-.342.363-.743.534-1.27.534-.05 0-.104 0-.155-.003-1.002-.064-1.933-.454-2.632-.786a14.981 14.981 0 0 1-4.981-3.885c-1.15-1.38-1.92-2.658-2.43-4.029-.314-.836-.428-1.488-.378-2.103a1.54 1.54 0 0 1 .466-.998l1.15-1.146c.166-.155.342-.239.514-.239.212 0 .384.128.492.236l.01.01c.206.191.402.39.608.601.105.108.213.215.32.326l.922.917c.358.357.358.686 0 1.042-.098.098-.193.195-.29.29-.284.288-.554.557-.847.819-.007.007-.014.01-.017.017-.29.289-.237.571-.176.763l.01.03c.24.578.577 1.122 1.09 1.77l.004.004c.931 1.142 1.913 2.033 2.996 2.715.139.087.28.158.415.225.122.06.237.118.335.178l.04.024a.734.734 0 0 0 .334.084c.28 0 .456-.175.513-.232l1.154-1.15c.115-.114.297-.251.51-.251.209 0 .381.13.486.245l.006.007 1.86 1.851c.347.343.347.696.003 1.052z" fill="#F78411"/></svg>