<svg width="15" height="15" viewBox="0 0 15 15" fill="none" xmlns="http://www.w3.org/2000/svg"><g clip-path="url(#a)" fill="#000"><path d="M12.878 11.912a.343.343 0 0 0-.341.342.344.344 0 0 0 .582.241.343.343 0 0 0 0-.483.343.343 0 0 0-.241-.1zm0 1.651a.344.344 0 0 0-.341.341.343.343 0 0 0 .34.341.343.343 0 0 0 .341-.34.342.342 0 0 0-.34-.342zm-1.171-.755a.342.342 0 0 0-.341.341.344.344 0 0 0 .34.341.344.344 0 0 0 .342-.34.343.343 0 0 0-.341-.342zm0 1.51a.344.344 0 0 0-.341.341.343.343 0 0 0 .34.341.342.342 0 0 0 .242-.582.344.344 0 0 0-.241-.1zm1.763-6.442L12.185 6.59l-.002-.003L7.668.79A2.053 2.053 0 0 0 4.598.6L1.8 3.4a2.053 2.053 0 0 0 .19 3.07l5.796 4.514.004.002 1.284 1.285c.221.221.51.331.8.331.29 0 .58-.11.8-.33l2.796-2.796a1.133 1.133 0 0 0 0-1.6zM6.05.682a1.37 1.37 0 0 1 1.08.528l4.33 5.56-.7.699-4.656-5.15c-.407-.45-.876-.793-1.297-.963l.274-.273a1.37 1.37 0 0 1 .968-.401zM4.246 1.916zm-.007.008c.138-.047.75.181 1.358.853l4.68 5.175L9.15 9.079l-5.174-4.68c-.672-.607-.9-1.22-.854-1.358L4.24 1.924zM3.115 3.049zM1.883 4.935a1.37 1.37 0 0 1 .399-1.053l.273-.273c.17.42.513.889.963 1.296l5.15 4.656-.7.7-5.56-4.33a1.37 1.37 0 0 1-.525-.996zm11.105 4.059l-2.795 2.795a.45.45 0 0 1-.636 0L8.48 10.713l3.432-3.431 1.076 1.076a.45.45 0 0 1 0 .636z"/></g><defs><clipPath id="a"><path fill="#fff" d="M0 0h15v15H0z"/></clipPath></defs></svg>