<svg width="86" height="86" viewBox="0 0 86 86" fill="none" xmlns="http://www.w3.org/2000/svg"><g clip-path="url(#a)"><path fill-rule="evenodd" clip-rule="evenodd" d="M65.836 6.047H15.893L10.43 46.06l5.463 33.725h49.943a3.21 3.21 0 0 0 3.204-3.197V9.245c0-1.76-1.44-3.197-3.204-3.197z" fill="#F2F2F2"/><path fill-rule="evenodd" clip-rule="evenodd" d="M6.109 9.244v5.121l-.815 1.261.815 1.31v13.28l-.751 1.28.75 1.297V46.06l-.516 1.255.517 1.31v12.918l-.9 1.368.9 1.207v12.47a3.21 3.21 0 0 0 3.203 3.197h6.58V6.047h-6.58a3.207 3.207 0 0 0-3.203 3.197z" fill="#F78411"/><path fill-rule="evenodd" clip-rule="evenodd" d="M60.038 55.164l-1.328 8.03c-.107.674.092 1.252.468 1.644.58.602 1.576.737 2.484.009l6.199-5.3-1.977-6.181-5.846 1.798z" fill="#FCC368"/><path fill-rule="evenodd" clip-rule="evenodd" d="M63.169 9.244V49.6l5.87-10.43V9.244c0-1.76-1.44-3.197-3.204-3.197h-5.87a3.207 3.207 0 0 1 3.204 3.197z" fill="#DDD"/><path fill-rule="evenodd" clip-rule="evenodd" d="M67.86 59.547L63.17 63.56v13.03a3.21 3.21 0 0 1-3.203 3.196h5.87a3.21 3.21 0 0 0 3.203-3.197V57.45l-1.179 2.097z" fill="#C2C7CC"/><path d="M11.253 22.027c0 .71-.578 1.288-1.288 1.288H6.109c-1.783 0-3.307-.443-4.406-1.28C.62 21.213 0 20.029 0 18.788c0-2.197 1.974-4.421 5.746-4.421h.363v2.57s-.237.003-.363.003c-2.08 0-3.169.93-3.169 1.848 0 .437.244.863.687 1.2.452.344 1.31.753 2.845.753h3.855c.711 0 1.289.575 1.289 1.287zM11.253 37.877c0 .71-.578 1.288-1.288 1.288H6.109c-1.783 0-3.307-.443-4.406-1.28C.62 37.063 0 35.879 0 34.639c0-2.198 1.974-4.423 5.746-4.423h.363v2.576h-.363c-2.08 0-3.169.93-3.169 1.847 0 .436.244.862.687 1.199.452.344 1.31.753 2.845.753h3.855c.711 0 1.289.577 1.289 1.287zM11.253 53.723c0 .71-.578 1.286-1.288 1.286H6.109c-1.783 0-3.307-.44-4.406-1.279C.62 52.907 0 51.724 0 50.482c0-2.196 1.974-4.422 5.746-4.422h.363v2.565s-.237.01-.363.01c-2.08 0-3.169.93-3.169 1.847 0 .438.244.864.687 1.201.452.343 1.31.753 2.845.753h3.855c.711 0 1.289.575 1.289 1.287zM11.62 69.206c0 .711-.577 1.286-1.29 1.286H6.473c-.123 0-.244-.002-.364-.006-1.627-.057-3.018-.492-4.042-1.272C.985 68.39.365 67.206.365 65.966c0-2.199 1.972-4.422 5.743-4.422v2.574c-2.079 0-3.166.93-3.166 1.848 0 .435.243.863.687 1.2.412.313 1.172.687 2.48.745.116.005.236.008.363.008h3.859c.712 0 1.288.576 1.288 1.287zM60.676 21.554H25.159a1.288 1.288 0 1 1 0-2.574h35.517a1.288 1.288 0 1 1 0 2.574zM60.676 32.698H25.159a1.288 1.288 0 1 1 0-2.574h35.517a1.288 1.288 0 1 1 0 2.574zM60.676 43.842H25.159a1.287 1.287 0 1 1 0-2.575h35.517a1.288 1.288 0 1 1 0 2.575zM53.467 54.98H25.16a1.287 1.287 0 1 1 0-2.574h28.308a1.288 1.288 0 1 1 0 2.574z" fill="gray"/><path fill-rule="evenodd" clip-rule="evenodd" d="M11.54 6.047h4.353v73.738h-4.354V6.047z" fill="#F74311"/><path fill-rule="evenodd" clip-rule="evenodd" d="M83.718 22.24c-2.15-1.206-4.899-.435-6.107 1.711l-.821 1.452 1.6 5.975 6.222-1.587.817-1.451a4.49 4.49 0 0 0-1.71-6.1z" fill="#FCC368"/><path fill-rule="evenodd" clip-rule="evenodd" d="M76.789 25.403l-7.75 13.767-9 15.994 7.821 4.384 1.18-2.098L84.61 29.796v-.005l-7.822-4.388z" fill="#F78411"/><path fill-rule="evenodd" clip-rule="evenodd" d="M65.193 58.052l2.668 1.496 1.179-2.098 15.572-27.654v-.005l-2.668-1.495v.005l-16.75 29.751z" fill="#F74311"/><path fill-rule="evenodd" clip-rule="evenodd" d="M81.466 21.67c2.03.791 2.103 3.747 1.3 5.174l-.821 1.452 2.667 1.494.817-1.451a4.49 4.49 0 0 0-1.71-6.1 4.502 4.502 0 0 0-2.253-.568z" fill="#EDA93B"/><path d="M59.54 66.124H25.16a1.288 1.288 0 1 1 0-2.574h34.38a1.288 1.288 0 1 1 0 2.575z" fill="gray"/><path fill-rule="evenodd" clip-rule="evenodd" d="M65.193 58.052l-6.198 5.305a2.112 2.112 0 0 1-.314.212c.004.516.193.955.497 1.268.58.603 1.575.738 2.483.01l1.508-1.288 4.692-4.011-2.668-1.496z" fill="#EDA93B"/></g><defs><clipPath id="a"><path fill="#fff" d="M0 0h86v86H0z"/></clipPath></defs></svg>