<svg width="15" height="16" viewBox="0 0 15 16" fill="none" xmlns="http://www.w3.org/2000/svg"><path d="M10.07 15.956h.017a.355.355 0 0 0 .355-.339c0-.02.114-2.08 1.927-2.92a.356.356 0 0 0 .175-.469c-.035-.077-.875-1.88-3.342-2.034a3.312 3.312 0 0 0-.46-.638 4.45 4.45 0 0 0-.778-.692c-.58-.383-1.291-.498-1.573-.53a3.304 3.304 0 0 0-.459-.635 4.43 4.43 0 0 0-.778-.692c-.723-.478-1.656-.535-1.695-.542-.213-.036-.392.163-.394.364 0 .022-.133 2.256-1.9 2.91a.356.356 0 0 0-.202.48c.034.075.846 1.81 3.209 2.02a3.196 3.196 0 0 0 .965.993c.7.463 1.467.638 1.746.69a3.21 3.21 0 0 0 1.064 1.168c.822.543 1.736.69 1.842.705.06.093.163.156.281.161zM1.8 10.235c.782-.409 1.254-1.06 1.54-1.682l.368 2.428c.025.17.068.336.119.498-1.13-.217-1.748-.857-2.028-1.244zm3.73 2.405l-.066-.045a2.568 2.568 0 0 1-1.053-1.72l-.55-3.63c.27.059.613.166.901.356.19.125.408.32.648.58.244.265.424.577.54.912l.567 3.746c.014.093.034.184.056.275a3.973 3.973 0 0 1-1.042-.474zm2.809 1.857l-.066-.045c-.43-.3-.753-.736-.93-1.235l-.57-3.77A3.244 3.244 0 0 0 6.7 9.11c.265.06.595.165.871.348.189.125.407.32.647.58.354.384.582.858.66 1.372l.54 3.572a4.041 4.041 0 0 1-1.08-.485zm1.165-3.557c1.262.184 1.932.889 2.218 1.293-.93.547-1.425 1.357-1.69 2.043l-.45-2.973a3.264 3.264 0 0 0-.078-.363zM11.762 9.495h.016a.355.355 0 0 0 .355-.339c.001-.02.115-2.08 1.928-2.92a.356.356 0 0 0 .175-.469c-.035-.077-.875-1.88-3.342-2.034a3.314 3.314 0 0 0-.46-.638 4.45 4.45 0 0 0-.778-.692c-.58-.382-1.291-.498-1.573-.53a3.304 3.304 0 0 0-.459-.635 4.43 4.43 0 0 0-.778-.691C6.123.068 5.19.01 5.151.004c-.213-.036-.392.163-.394.364 0 .022-.133 2.256-1.9 2.91a.356.356 0 0 0-.202.48c.034.075.846 1.81 3.209 2.02.228.369.527.69.882.937.027.02.054.038.083.056.7.463 1.467.638 1.746.69a3.211 3.211 0 0 0 1.064 1.168c.822.543 1.736.69 1.842.705.06.093.162.156.281.161zm-8.27-5.721c.782-.409 1.254-1.06 1.54-1.682l.367 2.429c.026.17.069.335.12.497C4.389 4.8 3.77 4.16 3.49 3.774zm3.73 2.405l-.066-.045a2.568 2.568 0 0 1-1.053-1.72l-.55-3.63c.269.059.613.166.901.356.19.125.408.32.648.58.244.266.424.577.54.912l.567 3.746c.014.093.034.184.056.275a3.973 3.973 0 0 1-1.042-.474zm2.809 1.857l-.066-.045c-.43-.3-.753-.736-.93-1.235l-.57-3.77a3.244 3.244 0 0 0-.072-.337c.265.06.594.165.87.348.19.125.407.32.648.58.354.384.582.858.66 1.372l.54 3.572a4.041 4.041 0 0 1-1.08-.485zm1.165-3.557c1.262.184 1.932.889 2.218 1.293-.93.547-1.425 1.357-1.69 2.043l-.45-2.973a3.29 3.29 0 0 0-.078-.363z" fill="#000"/></svg>