<svg width="16" height="16" viewBox="0 0 16 16" fill="none" xmlns="http://www.w3.org/2000/svg"><g clip-path="url(#a)" fill="#000"><path d="M12.656 7.993a.437.437 0 1 0 0-.875.437.437 0 0 0 0 .875z"/><path d="M15.985 8.118c-.468-1.7-2.478-3.474-4.933-3.788-.199-1.104-1.179-1.869-2.477-1.869H5.938a.469.469 0 0 0-.468.47c0 .845.22 1.645.642 2.344-.44.24-.927.56-1.36.898a2.416 2.416 0 0 0-2.408-2.252H.469A.469.469 0 0 0 0 4.39v1.215C0 6.702.578 7.667 1.444 8.21A3.074 3.074 0 0 0 0 10.817v1.215c0 .259.21.469.469.469h1.875a2.417 2.417 0 0 0 2.4-2.16c.367.293.834.61 1.255.845-.514.638-.514 1.382-.514 1.87 0 .258.21.468.469.468 1.538-.003 3.108.251 3.578-1.28 3.73.29 6.705-2.94 6.453-4.126zm-9.55-4.719c1.622.043 3.204-.286 3.622.852-1.007-.025-2.092.19-3.096.614a3.448 3.448 0 0 1-.526-1.466zM.938 5.605v-.746h1.406c.814 0 1.476.662 1.476 1.476v.649c-.329.319-.569.59-.711.76l-.035-.001A2.14 2.14 0 0 1 .938 5.605zm1.406 5.958H.938v-.746c0-1.178.958-2.137 2.136-2.137h.017c.143.185.387.482.73.83v.577c0 .814-.663 1.476-1.477 1.476zm5.4 1.023H6.44c.034-.38.137-.7.44-.969a8.163 8.163 0 0 0 1.695.51c-.145.28-.45.46-.83.46zm1.447-1.311C7.152 11.07 5.176 9.77 3.93 8.228c1.408-1.582 3.764-3.3 6.664-3.009-.73.898-1.125 1.95-1.125 3.038 0 1.086.394 2.136 1.125 3.03a6.444 6.444 0 0 1-1.403-.012zm4.496-1.29c-.41.324-1.11.791-2.03 1.078-.809-.802-1.25-1.79-1.25-2.806 0-1.029.45-2.03 1.274-2.84 1.931.504 3.12 2.009 3.383 2.878-.021.201-.43.94-1.377 1.69z"/></g><defs><clipPath id="a"><path fill="#fff" d="M0 0h16v16H0z"/></clipPath></defs></svg>