<svg width="15" height="15" viewBox="0 0 15 15" fill="none" xmlns="http://www.w3.org/2000/svg"><path d="M12.54 0h-1.734C9.93 0 9.17.563 8.916 1.401L8.593 2.46H2.701a.684.684 0 0 0-.68.718l.531 9.62A2.332 2.332 0 0 0 4.88 15h3.394c1.237 0 2.26-.968 2.328-2.203l.53-9.619a.684.684 0 0 0-.68-.718h-.939l.244-.803A1.09 1.09 0 0 1 10.806.88h1.734a.44.44 0 1 0 0-.88zM2.91 3.34h5.416l-.949 3.13a3.876 3.876 0 0 0-1.925.085c-.593.18-1.219.173-1.808-.02l-.568-.186-.166-3.01zm6.813 9.409a1.452 1.452 0 0 1-1.45 1.371H4.88c-.77 0-1.407-.602-1.45-1.371l-.3-5.457.241.079c.762.25 1.57.258 2.337.026a3 3 0 0 1 1.414-.08l-1.526 5.031a.44.44 0 1 0 .842.255L7.98 7.517A3.862 3.862 0 0 0 9.8 7.37l.225-.074-.3 5.453zm.519-9.41l-.167 3.014-.552.182c-.418.137-.855.18-1.286.13L9.247 3.34h.996z" fill="#1F1F1F"/></svg>