<svg width="90" height="53" viewBox="0 0 90 53" fill="none" xmlns="http://www.w3.org/2000/svg"><path fill-rule="evenodd" clip-rule="evenodd" d="M15.213 13.122a71.49 71.49 0 0 1-.773.079c-4.35.425-7.623 3.476-7.333 6.833.189 2.185 1.576 3.182 3.738 2.686.548-.126.57-.161.366-.563-2-3.934 1.33-7.887 5.966-7.084 4.304.745 4.803 6.433.796 9.08-.705.465-2.775 1.343-2.892 1.226-.027-.026.104-.399.693-1.98 1.208-3.238 1.517-4.419 1.354-5.177-.215-1.01-.882-1.446-2.21-1.447-.938 0-1.006.039-.947.545.163 1.407-.207 2.658-1.855 6.265-1.628 3.563-2.108 4.715-2.476 5.936-.793 2.636.056 4.298 2.266 4.435 1.207.075 1.425-.033 1.23-.607-.264-.779.024-2.524.798-4.835l.097-.291.631-.064c.731-.075 1.722-.215 1.993-.282.102-.026.415-.098.694-.16 3.775-.849 6.205-2.997 6.921-6.12.923-4.02-1.243-7.363-5.324-8.215-.911-.19-3.044-.34-3.733-.26zm55.552 1.694c-.578.21-.724.398-1.61 2.065-.17.32-.35.654-.402.742-.05.087-.483.886-.96 1.775a342.577 342.577 0 0 1-1.816 3.366 50.99 50.99 0 0 0-.645 1.205c-.195.403-.191.413-.317-.755-.467-4.33-1.326-7.643-2.083-8.031-1.115-.573-3.619.883-3.367 1.958.035.148.09.449.123.667.065.435.093.285-.357 1.935-.402 1.476-.917 3.641-1.354 5.697-.123.58-.428 1.892-.627 2.703-.864 3.523-2.1 4.593-4.847 4.194-.85-.124-.919-.067-.772.64.438 2.114 3.087 3.242 5.125 2.182 1.543-.803 2.373-2.653 3.542-7.89.104-.467.212-.944.24-1.06l.132-.583c.116-.527.29-1.289.35-1.537.03-.117.102-.427.162-.69.136-.59.537-2.167.557-2.187.034-.035.451 3.963.645 6.19.197 2.27.454 2.831 1.33 2.903.683.056.648.1 1.924-2.4.58-1.137 1.181-2.306 1.335-2.597.154-.292.442-.84.64-1.22a186.975 186.975 0 0 1 1.175-2.225c.208-.383.531-.988.778-1.458.1-.19.215-.379.256-.421.088-.091.11-.175-.29 1.057a91.988 91.988 0 0 0-.986 3.233c-.093.335-.201.717-.24.848-1.068 3.54-1.041 5.581.089 6.806.879.952 2.578 1.1 3.85.334.352-.212.337-.306-.118-.743-.668-.642-1.024-1.177-1.207-1.81-.263-.91.073-3.643.782-6.362.121-.467.24-.933.266-1.036.054-.225.345-1.22 1.252-4.29.64-2.163.652-2.28.288-2.718-.349-.42-2.17-.732-2.843-.487zm-41.032 5.357c-3.524.422-6.495 4.808-5.815 8.583.446 2.479 3.573 3.065 5.518 1.035.207-.216.248-.206.39.094.631 1.338 3.175 1.54 3.756.299.137-.294.133-.307-.158-.594-.734-.722-.68-1.258.553-5.395.252-.846.442-1.524.584-2.08.132-.519.186-.648.449-1.074.61-.99-1.912-1.267-2.944-.323-.288.265-.292.264-.493-.01-.316-.432-1.01-.634-1.84-.535zm10.943.017c-3.178.458-5.726 3.841-5.731 7.609-.001.94.057 1.251.35 1.858.67 1.394 2.729 1.775 4.349.806.443-.266.433-.322.152.813-1.069 4.317-1.846 5.595-3.439 5.655-1.021.038-1.526-.432-1.526-1.42 0-1.06.773-1.75 1.958-1.75.812 0 .36-1.4-.609-1.887-1.922-.967-4.173.189-4.55 2.337-.54 3.068 1.79 5.41 5.23 5.258 2.69-.119 4.352-1.788 5.683-5.708.477-1.405.715-2.3 2.133-8.003.33-1.325.687-2.702.936-3.604.078-.282.232-.664.352-.87.361-.623.296-.835-.309-1.003-.984-.273-1.836-.113-2.508.47l-.263.229-.227-.262c-.426-.491-1.062-.66-1.98-.528zm8.487.005c-1.181.246-1.856 1.25-2.405 3.576-.302 1.28-.579 2.33-.769 2.915-.666 2.052-.43 3.402.706 4.016 1.145.618 3.205.254 4.443-.786.411-.346.388-.344.535-.064.49.935 1.741 1.396 2.861 1.056.812-.246 1.223-.915.793-1.29-.708-.617-.682-1.332.153-4.178.255-.869.972-3.396 1.052-3.71.026-.102.133-.326.238-.498.334-.553.31-.68-.173-.916-.805-.392-2.121-.147-2.78.519-.598.605-.856 1.279-1.508 3.943-.277 1.131-.317 1.276-.585 2.12-.083.262-.166.55-.184.64-.104.523-1.094 1.405-1.62 1.442-1.186.085-1.18-.381.071-4.6.342-1.152.449-1.533.65-2.305.087-.333.215-.66.345-.878.306-.516.24-.748-.261-.923-.3-.105-1.215-.151-1.562-.08zm29.173-.023c-.917.132-1.5.311-2.157.661-3.372 1.798-4.85 7.01-2.618 9.232 1.883 1.876 6.182.83 8.014-1.948 2.632-3.994.785-8.527-3.239-7.945zm-47.47 1.862c.128.113.219.411.16.528-.067.132-.229.74-.57 2.136-.16.656-.365 1.431-.457 1.723-.092.291-.215.709-.274.927-.385 1.434-1.935 2.184-2.465 1.193-.918-1.718 2.344-7.606 3.605-6.507zm10.913-.09c.426.148.461.553.133 1.552-.47 1.426-.6 1.865-1.175 3.946-.288 1.04-1.45 1.876-2.079 1.495-1.378-.834.868-6.566 2.739-6.988.117-.027.216-.051.219-.054.003-.003.076.019.163.049zm37.843.32c1.14 1.058-.421 5.57-2.235 6.453-1.984.967-2.59-1.86-.993-4.633.843-1.463 2.566-2.434 3.228-1.82z" fill="#FCFAFA"/><path fill-rule="evenodd" clip-rule="evenodd" d="M0 23.685c0 21.55.008 23.689.084 23.718a.74.74 0 0 0 .214.032c.071 0 .129.022.129.048 0 .027.144.065.32.085.176.02.32.057.32.08 0 .025.133.061.294.081.162.02.294.056.294.08 0 .023.132.06.294.08.162.02.306.054.32.077.014.023.23.071.48.108.25.037.454.085.454.107 0 .021.144.056.32.076.176.02.32.056.32.08 0 .023.144.058.32.079.177.02.321.055.321.077s.149.056.33.075c.183.019.345.055.361.081.016.026.168.065.337.086.168.02.307.056.307.078s.168.056.373.076c.206.02.374.056.374.08s.156.06.347.08c.19.021.347.057.347.08s.168.058.373.078c.206.02.374.057.374.081 0 .025.168.061.374.082.205.02.374.057.374.082 0 .024.168.06.373.08.206.02.374.056.374.079s.18.058.4.079c.22.02.4.056.4.079s.18.06.4.08c.221.02.401.055.401.078s.168.058.374.079c.205.02.373.056.373.078 0 .023.205.059.454.08.25.02.454.057.454.081 0 .025.192.062.427.082.235.02.427.056.427.078 0 .023.204.059.454.08.25.02.454.055.454.077s.192.056.427.077c.234.02.427.056.427.08s.216.061.48.082c.264.02.48.056.48.079 0 .022.229.058.508.078.279.021.507.057.507.08 0 .024.222.06.494.081.271.02.517.057.547.08.03.025.396.073.814.11.418.036.76.083.76.105 0 .021.277.056.614.077.338.02.614.057.614.08 0 .024.264.06.587.08.323.021.588.056.588.078 0 .023.288.058.64.079.352.02.64.056.64.079 0 .022.3.058.668.079.367.02.667.056.667.079s.337.058.747.079c.412.021.748.058.748.081 0 .024.384.06.854.081.47.022.854.057.854.08s.409.058.908.08c.499.02.907.056.907.078 0 .023.45.058 1 .08.551.021 1.014.057 1.029.08.014.022.615.058 1.334.08.72.021 1.32.056 1.334.077.14.203 18.12.202 18.257 0 .014-.022.609-.058 1.32-.079.713-.021 1.295-.058 1.295-.08 0-.023.469-.059 1.041-.08.573-.021 1.041-.057 1.041-.079s.409-.058.908-.08c.499-.02.907-.056.907-.078 0-.023.373-.058.828-.08.455-.02.827-.057.827-.08s.324-.06.72-.08c.397-.021.721-.057.721-.08 0-.022.325-.058.72-.08.397-.02.722-.056.722-.078s.276-.057.614-.078c.337-.021.613-.057.613-.08 0-.022.277-.058.614-.079.338-.021.614-.058.614-.081 0-.024.264-.06.587-.082.323-.02.587-.055.587-.077s.36-.071.801-.11c.44-.037.801-.085.801-.106 0-.021.228-.056.507-.076.279-.021.507-.057.507-.08 0-.022.216-.057.48-.078.265-.02.481-.057.481-.08s.216-.058.48-.08c.264-.02.48-.056.48-.079s.217-.058.481-.08c.264-.02.48-.057.48-.08 0-.025.193-.061.428-.081.235-.02.427-.056.427-.079 0-.022.204-.058.453-.079.25-.02.454-.056.454-.079 0-.022.168-.058.374-.078.205-.02.374-.056.374-.079s.204-.058.453-.079c.25-.02.454-.057.454-.081s.18-.06.4-.08c.22-.021.4-.056.4-.079 0-.022.157-.057.348-.077.19-.02.347-.057.347-.081 0-.025.18-.061.4-.082.22-.02.4-.055.4-.078 0-.022.156-.057.347-.077.191-.02.347-.056.347-.08 0-.023.18-.059.4-.08.22-.02.401-.056.401-.08s.144-.06.32-.08c.177-.02.32-.055.32-.077 0-.023.15-.056.331-.075.182-.019.344-.055.36-.08.017-.025.193-.063.39-.083.199-.021.361-.058.361-.082s.144-.06.32-.08c.176-.02.32-.057.32-.08 0-.025.157-.06.347-.081.191-.02.347-.056.347-.079s.145-.058.32-.078c.177-.02.321-.055.321-.077s.216-.071.48-.109c.265-.037.48-.086.48-.108 0-.022.145-.057.321-.077.176-.02.32-.058.32-.083s.12-.062.267-.081c.147-.02.267-.054.267-.076 0-.023.144-.058.32-.078.177-.02.32-.056.32-.079s.133-.058.294-.078c.162-.02.294-.056.294-.08 0-.023.132-.059.294-.079.161-.02.293-.057.293-.082s.132-.062.294-.081c.161-.02.293-.057.293-.082s.12-.06.267-.08c.147-.02.267-.053.267-.075 0-.021.12-.055.267-.074l.267-.035V0H0v23.685zm17.922-10.463c4.274.537 6.623 2.995 6.511 6.812-.115 3.943-2.644 6.685-7.084 7.682-.28.063-.591.135-.694.16-.27.068-1.262.208-1.993.282l-.63.065-.098.291c-.774 2.31-1.062 4.056-.798 4.835.195.574-.023.682-1.23.607-2.21-.137-3.059-1.799-2.265-4.435.367-1.22.847-2.373 2.475-5.936 1.648-3.607 2.018-4.858 1.855-6.265-.059-.506.01-.546.947-.545 1.328.001 1.995.437 2.21 1.447.163.758-.146 1.94-1.354 5.178-.59 1.58-.72 1.953-.693 1.979.016.016.335-.074.708-.2 3.192-1.072 4.87-3.105 4.869-5.898-.001-2.3-1.262-3.824-3.48-4.208-4.638-.803-7.967 3.15-5.967 7.084.205.402.182.437-.366.563-3.46.794-5-2.736-2.686-6.162 1.273-1.886 3.52-3.087 6.28-3.357.323-.032.672-.068.775-.08.372-.042 2.07.021 2.708.101zm54.47 1.614c.968.143 1.28.335 1.435.883.076.27.024.507-.507 2.301-.907 3.07-1.198 4.066-1.252 4.291-.025.103-.145.57-.266 1.036-.709 2.718-1.044 5.452-.782 6.361.183.634.54 1.169 1.207 1.81.455.438.47.532.117.744-1.27.766-2.97.618-3.85-.334-1.13-1.225-1.156-3.265-.089-6.806.04-.131.148-.513.241-.848.216-.777.624-2.114.987-3.233.4-1.232.377-1.148.289-1.057a2.9 2.9 0 0 0-.256.421c-.246.47-.57 1.075-.778 1.458-.165.303-.368.688-1.174 2.226l-.641 1.219c-.154.291-.754 1.46-1.335 2.597-1.276 2.5-1.241 2.456-1.924 2.4-.876-.072-1.133-.633-1.33-2.904-.194-2.226-.61-6.224-.645-6.189-.02.02-.421 1.598-.557 2.188-.06.262-.132.572-.161.689-.06.248-.235 1.01-.351 1.537-.045.204-.105.466-.132.583-.028.116-.136.593-.24 1.06-1.169 5.237-2 7.087-3.542 7.89-2.038 1.06-4.687-.068-5.125-2.182-.147-.707-.078-.764.772-.64 2.748.398 3.983-.67 4.847-4.194.2-.81.504-2.123.627-2.703.438-2.056.952-4.22 1.355-5.697.45-1.65.422-1.5.356-1.935a10.615 10.615 0 0 0-.123-.667c-.251-1.075 2.252-2.53 3.367-1.958.757.388 1.616 3.7 2.083 8.031.126 1.168.122 1.158.317.755.068-.138.358-.68.645-1.205.595-1.09.641-1.174 1.817-3.366.476-.889.908-1.688.96-1.775.05-.088.232-.422.402-.742 1.174-2.212 1.35-2.323 3.236-2.045zm-41.28 5.498c.186.095.36.236.461.373.201.275.205.276.494.011 1.03-.944 3.553-.667 2.943.323-.263.426-.317.555-.45 1.073a55.187 55.187 0 0 1-.583 2.08c-1.232 4.139-1.287 4.674-.553 5.396.292.287.295.3.158.594-.58 1.242-3.125 1.04-3.756-.3-.142-.299-.183-.309-.39-.093-1.326 1.384-3.739 1.616-4.806.461-1.717-1.856-.518-6.68 2.197-8.84 1.342-1.069 3.322-1.566 4.285-1.078zm11.042-.017c.152.077.378.257.503.4l.227.263.263-.229c.672-.583 1.524-.743 2.508-.47.605.168.67.38.309 1.003-.12.206-.274.587-.352.87-.25.902-.607 2.28-.936 3.604-1.418 5.703-1.656 6.598-2.133 8.003-1.331 3.92-2.993 5.59-5.684 5.708-3.44.151-5.768-2.19-5.23-5.258.378-2.148 2.63-3.304 4.552-2.337.969.488 1.42 1.887.608 1.887-1.185 0-1.958.69-1.958 1.75 0 .988.505 1.458 1.526 1.42 1.593-.06 2.37-1.338 3.439-5.655.28-1.135.291-1.08-.152-.813-1.62.97-3.68.588-4.35-.806-.967-2.01-.027-5.614 2.003-7.676 1.438-1.462 3.711-2.24 4.857-1.664zm8.571-.043c.501.175.567.407.26.923-.13.219-.257.545-.344.878a58.958 58.958 0 0 1-.65 2.305c-1.25 4.219-1.257 4.686-.07 4.6.525-.037 1.515-.92 1.62-1.442.018-.09.1-.378.183-.64.268-.844.308-.989.585-2.12.652-2.664.91-3.337 1.509-3.943.658-.666 1.974-.911 2.78-.519.483.236.507.363.172.916a2.464 2.464 0 0 0-.238.498c-.08.314-.797 2.84-1.052 3.71-.835 2.846-.861 3.56-.153 4.178.43.375.02 1.044-.792 1.29-1.12.34-2.371-.121-2.862-1.056-.147-.28-.124-.282-.535.064-1.238 1.04-3.298 1.404-4.443.786-1.135-.614-1.372-1.964-.706-4.016.19-.586.467-1.634.77-2.915.548-2.326 1.223-3.33 2.405-3.576.346-.072 1.26-.026 1.561.079zm29.337-.002c4.124.986 3.418 7.871-1.032 10.059-1.137.56-2.751.812-3.816.598-4.466-.899-3.094-8.776 1.823-10.468.398-.137.684-.2 1.3-.29.3-.043 1.387.02 1.725.101zm-49.742 1.69c-1.875.498-4.026 5.79-2.81 6.916.57.528 1.911-.398 2.215-1.53.06-.218.182-.636.274-.927.092-.292.298-1.067.458-1.723.34-1.396.502-2.004.569-2.136.178-.352-.255-.72-.706-.6zm11.077-.013c-1.87.422-4.117 6.154-2.739 6.988.63.381 1.791-.454 2.079-1.495.575-2.08.706-2.52 1.175-3.947.281-.855.295-1.03.108-1.353-.063-.108-.363-.291-.404-.247a3.186 3.186 0 0 1-.22.054zm37.272.207c-1.685.417-3.16 2.745-3.158 4.98.004 2.952 2.74 2.096 3.982-1.245.928-2.495.577-4.082-.824-3.735z" fill="#FC4B04"/></svg>