<svg width="1419" height="560" viewBox="0 0 1419 560" fill="none" xmlns="http://www.w3.org/2000/svg"><path d="M1418.01 248.085v9.629c-.16.428-.38.802-.43 1.23-1.13 16.101-6.69 30.812-15.46 44.132-20.6 31.4-49.06 53.065-84.2 65.849-35.79 13.053-72.6 13.588-109.62 6.687-36.69-6.847-70.61-20.809-102.12-40.655-32.31-20.327-59.49-45.843-79.07-78.955-13.69-23.216-23.64-47.716-24.98-74.997-1.28-26.8 7.22-49.909 26.54-68.846 13.26-12.945 29.2-21.397 46.43-27.762 19.63-7.222 40.01-11.448 60.34-16.048 31.78-7.222 61.84-18.562 89.23-36.536 10.27-6.74 20.55-13.534 31.19-19.685 16.32-9.415 33.76-14.39 52.75-11.127 23.05 3.905 40.44 15.941 50.34 37.445 8.18 17.813 9.31 36.857 7.38 56.06-1.28 12.572-3.37 25.089-4.71 37.66-1.07 10.056-.75 20.113 2.03 29.956 3.43 12.036 10.92 21.236 19.8 29.581 5.08 4.761 10.22 9.415 15.14 14.336 8.77 8.773 14.65 19.204 17.49 31.294.8 3.53 1.28 7.168 1.93 10.752z" fill="#F7C042"/><path d="M1341.27 387.114l-.01.038-.02.039c-5.15 14.985-14.17 27.545-25.93 37.993v.002c-27.77 24.772-60.56 38.212-97.51 41.438-37.62 3.315-73.04-5.608-106.83-21.77-33.49-16.023-62.49-38.168-87.67-65.367-25.818-27.858-45.325-59.333-55.591-96.113-7.183-25.836-10.399-51.812-4.7-78.186 5.61-25.821 19.555-45.571 42.721-58.644 15.92-8.932 33.28-12.932 51.44-14.611 18.45-1.679 36.88-.919 55.44-.154 2.26.093 4.53.187 6.8.276 32.7 1.254 64.86-1.93 96.18-12.271.66-.218 1.32-.436 1.97-.654 11.02-3.639 22.01-7.27 33.16-10.264 17.97-4.809 35.72-5.062 52.82 2.818v.001c20.86 9.555 34.18 25.292 38.08 48.086 3.23 18.964-.53 37.364-7.3 55.276-2.24 5.879-4.67 11.697-7.11 17.538l-.26.606c-2.35 5.633-4.72 11.29-6.93 17.007-3.68 9.563-6.03 19.554-5.89 30.022v.002c.2 12.904 5.21 24.005 11.69 34.464v.002c.94 1.499 1.87 2.988 2.8 4.473 2.76 4.4 5.5 8.765 8.09 13.251 6.07 10.506 8.98 21.828 8.6 33.952-.09 2.366-.33 4.704-.57 7.093-.11 1.179-.23 2.37-.34 3.583v.017l-.01.019v.018l-.01.018v.018l-.01.018v.018l-.01.019v.018l-.01.018v.018l-.01.018v.018l-.01.019v.018l-.01.018v.018l-.01.018v.018l-.01.019v.036l-.01.018v.018l-.01.018v.019l-.01.018v.018l-.01.018v.018l-.01.018v.019l-.01.018v.018l-.01.018v.018l-.01.018v.019l-.01.018v.018l-.01.018v.018l-.01.018v.019l-.01.018v.018l-.01.018v.018l-.01.018v.019l-.01.018v.018l-.01.018v.018l-.01.018v.019l-.01.018v.018l-.01.018v.036l-.01.019v.018l-.01.018v.018l-.01.018v.018l-.01.019v.018l-.01.018v.018l-.01.018v.018l-.01.019v.018l-.01.018v.018l-.01.018v.018l-.01.019v.018l-.01.018v.018l-.01.018v.018l-.01.019v.018l-.01.018v.018l-.01.018v.018l-.01.018v.019l-.01.018v.018l-.01.018v.036l-.01.019v.018l-.01.018v.018l-.01.018v.018l-.01.019v.018l-.01.018v.018l-.01.018v.018l-.01.019v.018l-.01.018v.018l-.01.018v.018l-.01.019v.018l-.01.018v.018l-.01.018v.018l-.01.019v.018l-.01.018v.018l-.01.018v.018l-.01.019v.018l-.01.018v.018l-.01.018v.037l-.01.018v.018l-.01.018v.018l-.01.018v.019l-.01.018v.018l-.01.018v.018l-.01.018v.019l-.01.018v.018l-.01.018v.018l-.01.018v.019l-.01.018v.018l-.01.018v.018l-.01.018v.019l-.01.018v.018l-.01.018V380l-.01.018v.019l-.01.018v.018l-.01.018v.018l-.01.018v.019l-.01.018v.036l-.01.018v.018l-.01.019v.018l-.01.018v.018l-.01.018v.018l-.01.019v.018l-.01.018v.018l-.01.018v.018l-.01.019v.018l-.01.018v.018l-.01.018v.018l-.01.019v.018l-.01.018v.018l-.01.018v.018l-.01.019v.018l-.01.018v.018l-.01.018v.018l-.01.018v.019l-.01.018v.036l-.01.018v.018l-.01.019v.018l-.01.018v.018l-.01.018v.018l-.01.019v.018l-.01.018v.018l-.01.018v.018l-.01.019v.018l-.01.018v.018l-.01.018v.018l-.01.019v.018l-.01.018v.018l-.01.018v.018l-.01.019v.018l-.01.018v.018l-.01.018v.018l-.01.019v.018l-.01.018v.036l-.01.018v.019l-.01.018v.018l-.01.018v.018l-.01.018v.019l-.01.018v.018l-.01.018v.018l-.01.018v.019l-.01.018v.018l-.01.018v.018l-.01.018v.019l-.01.018v.018l-.01.018v.018l-.01.018v.019l-.01.018v.018l-.01.018v.018l-.01.018v.019l-.01.018v.018l-.01.018v.018l-.01.018v.037l-.01.018v.018l-.01.018v.018l-.01.019v.018l-.01.018v.018l-.01.018v.018l-.01.019v.018l-.01.018v.018l-.01.018v.018l-.01.019v.018l-.01.018v.018l-.01.018v.018l-.01.019v.018l-.01.018v.018l-.01.018v.018l-.01.019v.018l-.01.018v.018l-.01.018v.018l-.01.019v.036l-.01.018v.018l-.01.018v.019l-.01.018v.018l-.01.018v.018l-.01.018v.018l-.01.019v.018l-.01.018v.018l-.01.018v.018l-.01.019v.018l-.01.018v.018l-.01.018v.018l-.01.019v.018l-.01.018v.018l-.01.018v.018l-.01.019v.018l-.01.018v.018l-.01.018v.018l-.01.019v.036l-.01.018v.018l-.01.018v.019l-.01.018v.018l-.01.018v.018l-.01.018v.019l-.01.018v.018l-.01.018v.018l-.01.018v.019l-.01.018v.018l-.01.018v.018l-.01.018v.019l-.01.018v.018l-.01.018v.018l-.01.018v.019l-.01.018v.018l-.01.018v.018l-.01.018v.019l-.01.018v.018l-.01.018v.036l-.01.019v.018l-.01.018v.018l-.01.018v.018l-.01.019v.018l-.01.018v.018l-.01.018v.018l-.01.019v.018l-.01.018v.018l-.01.018v.018l-.01.019v.018l-.01.018v.018l-.01.018v.018l-.01.019v.018l-.01.018v.018l-.01.018v.018l-.01.019v.018l-.01.018v.018l-.01.018v.037l-.01.018v.018l-.01.018v.018l-.01.018v.019l-.01.018v.018l-.01.018v.018l-.01.018v.019l-.01.018v.018l-.01.018v.018l-.01.018v.019l-.01.018v.018l-.01.018v.018l-.01.018v.018l-.01.019v.018l-.01.018v.018l-.01.018v.018l-.01.019v.018l-.01.018v.018l-.01.018v.037l-.01.018v.018l-.01.018v.018l-.01.018v.019l-.01.018v.018l-.01.018v.018l-.01.018v.019l-.01.018v.018l-.01.018v.009c-.05.066-.11.139-.23.3-.16.212-.37.508-.52.883z" stroke="#000" stroke-width="3"/><circle cx="1392" cy="133" r="8.5" stroke="#000" stroke-width="3"/><path fill-rule="evenodd" clip-rule="evenodd" d="M1410.56 160.561c.59-.586.59-1.536 0-2.122a1.5 1.5 0 0 0-2.12 0l-2.94 2.94-2.94-2.94a1.5 1.5 0 0 0-2.12 0 1.493 1.493 0 0 0 0 2.122l2.94 2.939-2.94 2.939a1.493 1.493 0 0 0 0 2.122 1.5 1.5 0 0 0 2.12 0l2.94-2.94 2.94 2.94a1.5 1.5 0 0 0 2.12 0c.59-.586.59-1.536 0-2.122l-2.94-2.939 2.94-2.939z" fill="#000"/><path d="M403.182 423.427v9.333c-.156.415-.363.778-.415 1.193-1.089 15.608-6.481 29.867-14.984 42.779-19.961 30.437-47.544 51.438-81.607 63.83-34.686 12.653-70.357 13.171-106.235 6.482-35.567-6.637-68.438-20.171-98.976-39.408-31.316-19.704-57.654-44.438-76.63-76.535C11.062 408.597 1.418 384.848.122 358.403c-1.244-25.978 7-48.379 25.716-66.734 12.858-12.549 28.309-20.742 45.004-26.912 19.028-7 38.781-11.097 58.483-15.556 30.797-7 59.936-17.993 86.481-35.416 9.955-6.533 19.91-13.118 30.227-19.081 15.814-9.127 32.716-13.949 51.121-10.786 22.347 3.785 39.197 15.452 48.789 36.297 7.932 17.267 9.021 35.727 7.155 54.342-1.245 12.185-3.267 24.319-4.563 36.504-1.037 9.749-.726 19.497 1.97 29.038 3.318 11.667 10.577 20.586 19.184 28.675 4.925 4.615 9.902 9.126 14.672 13.896 8.503 8.504 14.206 18.616 16.954 30.334.778 3.423 1.245 6.949 1.867 10.423z" fill="#F7C042"/><path d="M288.216 92.687l.041-.005.04-.008c15.557-3.027 30.943-1.495 45.87 3.462l.003.001c35.335 11.66 63.368 33.334 84.64 63.725l.001.001c21.678 30.918 31.66 66.053 34.561 103.402 2.868 37.014-1.812 73.198-12.776 108.606-11.215 36.289-28.721 68.921-55.44 96.201-18.783 19.138-39.671 34.911-65.361 43.163-25.167 8.052-49.243 5.85-72.146-7.674-15.695-9.321-27.84-22.354-38.373-37.24-10.683-15.147-19.236-31.48-27.855-47.939-1.052-2.008-2.105-4.018-3.162-6.028l-.001-.001c-15.262-28.944-34.1-55.204-58.713-77.154l-1.556-1.387c-8.659-7.718-17.297-15.419-25.47-23.584-13.147-13.154-22.243-28.403-23.965-47.146v-.004c-2.154-22.84 4.815-42.243 22.605-57.02 14.805-12.282 32.619-18.227 51.521-21.314 6.209-1.002 12.462-1.809 18.743-2.612l.651-.083c6.058-.775 12.141-1.553 18.193-2.504 10.125-1.59 19.95-4.552 28.944-9.909l.003-.002c11.076-6.623 18.185-16.512 24.002-27.353l.001-.002c.833-1.557 1.655-3.11 2.475-4.66 2.431-4.591 4.841-9.145 7.431-13.631 6.066-10.507 14.415-18.689 25.105-24.422 2.094-1.104 4.236-2.07 6.425-3.057 1.08-.487 2.171-.98 3.274-1.496l.017-.005.018-.004.019-.005.018-.005.018-.005.018-.005.018-.005.018-.005.019-.004.018-.005.018-.005.018-.005.018-.005.018-.005.019-.005.018-.004.018-.005.018-.005.018-.005.018-.005.018-.005.019-.005.018-.005.018-.004.018-.005.018-.005.018-.005.019-.005.018-.005.018-.005.018-.005.018-.004.018-.005.019-.005.018-.005.018-.005.018-.005.018-.005.018-.005.019-.004.018-.005.018-.005.018-.005.018-.005.018-.005.019-.004.018-.005.018-.005.018-.005.018-.005.018-.005.019-.005.018-.005.018-.004.018-.005.018-.005.018-.005.019-.005.018-.005.018-.005.018-.005.018-.004.018-.005.019-.005.018-.005.018-.005.018-.005.018-.005.018-.005.019-.004.018-.005.018-.005.018-.005.018-.005.018-.005.019-.005.018-.004.018-.005.018-.005.018-.005.018-.005.019-.005.018-.005.018-.004.018-.005.018-.005.018-.005.019-.005.018-.005.018-.005.018-.005.018-.004.018-.005.019-.005.018-.005.018-.005.018-.005.018-.005.018-.005.019-.004.018-.005.018-.005.018-.005.018-.005.018-.005.019-.005.018-.004.018-.005.018-.005.018-.005.018-.005.019-.005.018-.005.018-.004.018-.005.018-.005.018-.005.019-.005.018-.005.018-.005.018-.005.018-.005.018-.004.019-.005.018-.005.018-.005.018-.005.018-.005.018-.005.019-.004.018-.005.018-.005.018-.005.018-.005.018-.005.019-.005.018-.004.018-.005.018-.005.018-.005.018-.005.019-.005.018-.005.018-.004.018-.005.018-.005.018-.005.018-.005.019-.005.018-.005.018-.005.018-.005.018-.004.018-.005.019-.005.018-.005.018-.005.018-.005.018-.005.018-.004.019-.005.018-.005.018-.005.018-.005.018-.005.018-.005.019-.004.018-.005.018-.005.018-.005.018-.005.018-.005.019-.005.018-.005.018-.004.018-.005.018-.005.018-.005.019-.005.018-.005.018-.005.018-.005.018-.004.018-.005.019-.005.018-.005.018-.005.018-.005.018-.005.018-.004.019-.005.018-.005.018-.005.018-.005.018-.005.018-.005.019-.004.018-.005.018-.005.018-.005.018-.005.018-.005.019-.005.018-.005.018-.004.018-.005.018-.005.018-.005.019-.005.018-.005.018-.005.018-.005.018-.004.018-.005.019-.005.018-.005.018-.005.018-.005.018-.005.018-.005.019-.004.018-.005.018-.005.018-.005.018-.005.018-.005.019-.004.018-.005.018-.005.018-.005.018-.005.018-.005.019-.005.018-.005.018-.004.018-.005.018-.005.018-.005.019-.005.018-.005.018-.005.018-.005.018-.004.018-.005.019-.005.018-.005.018-.005.018-.005.018-.005.018-.005.019-.004.018-.005.018-.005.018-.005.018-.005.018-.005.019-.005.018-.004.018-.005.018-.005.018-.005.018-.005.019-.005.018-.005.018-.004.018-.005.018-.005.018-.005.019-.005.018-.005.018-.005.018-.005.018-.004.018-.005.018-.005.019-.005.018-.005.018-.005.018-.005.018-.005.018-.004.019-.005.018-.005.018-.005.018-.005.018-.005.018-.005.019-.004.018-.005.018-.005.018-.005.018-.005.018-.005.019-.005.018-.004.018-.005.018-.005.018-.005.018-.005.019-.005.018-.005.018-.005.018-.005.018-.004.018-.005.019-.005.018-.005.018-.005.018-.005.018-.005.018-.004.019-.005.018-.005.018-.005.018-.005.018-.005.018-.005.019-.004.018-.005.018-.005.018-.005.018-.005.018-.005.019-.005.018-.005.018-.004.018-.005.018-.005.018-.005.019-.005.018-.005.018-.005.018-.005.018-.004.018-.005.019-.005.018-.005.018-.005.018-.005.018-.004.018-.005.019-.005.018-.005.018-.005.018-.005.018-.005.018-.005.019-.004.018-.005.018-.005.018-.005.018-.005.018-.005.019-.005.018-.005.018-.004.018-.005.018-.005.018-.005.019-.005.018-.005.018-.005.018-.005.018-.004.018-.005.019-.005.018-.005.018-.005.018-.005.018-.005.018-.004.019-.005.018-.005.018-.005.018-.005.018-.005.018-.005.019-.004.018-.005.018-.005.018-.005.018-.005.018-.005.019-.005.018-.005.018-.004.018-.005.018-.005.018-.005.019-.005.018-.005.018-.005.018-.005.018-.004.018-.005.019-.005.018-.005.018-.005.018-.005.018-.005.018-.005.018-.004.019-.005.018-.005.018-.005.018-.005.018-.005.018-.004.019-.005.018-.005.018-.005.018-.005.018-.005.018-.005.019-.005.018-.004.018-.005.018-.005.018-.005.018-.005.019-.005.018-.005.018-.005.018-.004.018-.005.018-.005.019-.005.018-.005.018-.005.018-.005.018-.005.018-.004.019-.005.018-.005.018-.005.018-.005.018-.005.018-.005.019-.004.018-.005.018-.005.018-.005.018-.005.018-.005.019-.005.018-.004.018-.005.018-.005.018-.005.018-.005.019-.005.018-.005.018-.005.018-.004.018-.005.018-.005.019-.005.018-.005.018-.005.018-.005.018-.005.018-.004.019-.005.018-.005.018-.005.018-.005.018-.005.018-.005.019-.004.018-.005.018-.005.018-.005.018-.005.018-.005.019-.005.018-.004.018-.005.018-.005.018-.005.018-.005.019-.005.018-.005.018-.005.018-.005.018-.004.018-.005.019-.005.018-.005.018-.005.009-.002c.083.012.177.027.376.051.263.032.622.06 1.022.005z" stroke="#000" stroke-width="3"/><circle cx="83.609" cy="133.127" r="8.5" stroke="#000" stroke-width="3"/><path fill-rule="evenodd" clip-rule="evenodd" d="M64.56 165.561a1.501 1.501 0 0 0-2.12-2.122l-2.94 2.94-2.94-2.94a1.501 1.501 0 0 0-2.121 2.122l2.94 2.939-2.94 2.939a1.501 1.501 0 0 0 2.122 2.122l2.939-2.94 2.94 2.94a1.501 1.501 0 0 0 2.121-2.122l-2.94-2.939 2.94-2.939z" fill="#000"/></svg>