<svg width="15" height="15" viewBox="0 0 15 15" fill="none" xmlns="http://www.w3.org/2000/svg"><path d="M13.808 10.55l-1.524-.879 1.32-.778a.512.512 0 1 0-.52-.882l-1.818 1.072L8.524 7.5l2.741-1.583 1.82 1.072a.51.51 0 0 0 .7-.18.512.512 0 0 0-.18-.702l-1.321-.778 1.524-.88a.512.512 0 1 0-.512-.886l-1.523.88-.014-1.534a.511.511 0 1 0-1.024.01l.019 2.111-2.742 1.583V3.447L9.85 2.408a.512.512 0 1 0-.503-.891l-1.335.754V.511a.512.512 0 0 0-1.024 0v1.76l-1.335-.754a.512.512 0 1 0-.503.891l1.838 1.04v3.165L4.246 5.03l.02-2.112a.512.512 0 0 0-.508-.516h-.005c-.28 0-.51.226-.512.507l-.013 1.533-1.524-.88a.512.512 0 1 0-.512.887l1.524.88-1.32.778a.512.512 0 0 0 .52.882l1.819-1.072L6.476 7.5 3.734 9.083 1.915 8.011a.512.512 0 0 0-.52.882l1.32.778-1.523.88a.512.512 0 0 0 .512.886l1.523-.88.014 1.534a.512.512 0 0 0 .512.507h.005a.512.512 0 0 0 .507-.517l-.02-2.111 2.743-1.584v3.167L5.15 12.592a.512.512 0 1 0 .503.89l1.335-.753v1.76a.512.512 0 0 0 1.024 0v-1.76l1.335.754a.51.51 0 0 0 .697-.194.512.512 0 0 0-.194-.697l-1.838-1.04V8.388l2.742 1.583-.02 2.111a.512.512 0 0 0 .508.517h.004c.28 0 .51-.226.512-.507l.014-1.533 1.524.88a.51.51 0 0 0 .7-.188.512.512 0 0 0-.188-.7z" fill="#000"/></svg>